<svg width="414" height="500" viewBox="0 0 414 500" fill="none" xmlns="http://www.w3.org/2000/svg">
<g filter="url(#filter0_d_106_41)">
<path d="M118.24 458.115C119.822 451.162 127.348 400.865 130.609 379.15C121.233 378.353 111.918 376.722 102.74 374.272C100.995 397.922 96.6525 453.17 96.7208 457.07C103.844 458.332 111.057 458.682 118.24 458.115Z" fill="#191919"/>
<path d="M157.802 461.25C161.472 457.683 173.344 456.438 177.521 459.358C178.649 439.94 180.394 400.458 181.274 381.953C171.592 382.858 161.863 382.747 152.197 381.623C153.213 405.5 156.906 459.145 157.802 461.25Z" fill="#191919"/>
<path d="M273.424 442.5C272.971 434.535 276.173 405.5 276.736 383.42C267.355 385.705 257.83 387.02 248.263 387.352C250.861 410.67 255.024 443.68 255.862 446.302C260.274 446.945 270.181 444.872 273.424 442.5Z" fill="#191919"/>
<path d="M319.018 367.865C334.336 375.168 356.121 383.318 361.975 384.463C365.064 378.837 366.851 372.316 367.15 365.575C362.78 362.938 356.156 356.913 343.39 349.163C335.718 356.216 327.565 362.473 319.018 367.865Z" fill="#191919"/>
<path d="M401.77 483.225C272.174 483.225 140.216 483.872 12.2668 483.425C11.9407 483.447 11.634 483.62 11.4096 483.907C11.1853 484.193 11.0603 484.573 11.0603 484.967C11.0603 485.362 11.1853 485.742 11.4096 486.028C11.634 486.315 11.9407 486.488 12.2668 486.51C141.764 488.945 272.186 486.61 401.77 486.51C402.097 486.452 402.395 486.255 402.611 485.953C402.827 485.651 402.946 485.266 402.946 484.868C402.946 484.469 402.827 484.084 402.611 483.782C402.395 483.48 402.097 483.283 401.77 483.225Z" fill="#191919"/>
<path d="M172.712 148.765C174.068 146.558 175.666 144.4 176.944 142.125C176.254 145.746 175.718 149.408 175.337 153.095C175.337 154.01 176.3 154.758 176.786 154.058C178.094 150.997 179.02 147.72 179.535 144.333C179.852 145.86 180.03 148.233 180.237 150.01C180.444 151.788 181.618 151.473 182.009 150.125C183.102 146.375 182.216 140.45 181.295 136.583C180.496 133.265 178.097 132.618 177.447 134.275C175.6 138.995 172.801 143.97 171.4 147.803C171.348 147.907 171.313 148.022 171.298 148.142C171.282 148.263 171.287 148.386 171.311 148.504C171.359 148.743 171.484 148.949 171.658 149.076C171.832 149.204 172.041 149.243 172.239 149.184C172.436 149.126 172.607 148.975 172.712 148.765Z" fill="#191919"/>
<path d="M177.974 130.825C177.867 132.485 180.723 132.865 180.723 131.205C181.067 124.983 180.599 111.093 179.067 105.133C178.19 101.698 175.074 101.68 176.321 106.245C177.844 111.803 178.355 124.95 177.974 130.825Z" fill="#191919"/>
<path d="M136.984 161.145C142.139 164.263 152.184 165.112 157.27 162.372C158.643 161.622 158.305 159.713 156.927 160.068C150.455 161.783 143.733 161.538 137.359 159.353C136.353 159.088 136.187 160.663 136.984 161.145Z" fill="#191919"/>
<path d="M153.006 171.535C151.742 169.124 150.087 167.047 148.142 165.427C146.755 164.082 144.801 167.428 144.254 168.178C143.412 169.353 142.577 170.518 141.834 171.763C141.752 171.86 141.688 171.978 141.646 172.108C141.604 172.237 141.585 172.376 141.59 172.515C141.595 172.654 141.624 172.79 141.675 172.915C141.726 173.04 141.798 173.151 141.886 173.24C141.974 173.329 142.077 173.395 142.188 173.434C142.299 173.472 142.415 173.482 142.529 173.464C142.643 173.445 142.753 173.397 142.851 173.324C142.949 173.251 143.034 173.155 143.099 173.04C144.376 171.227 145.861 169.645 147.51 168.342C147.992 168.252 149.916 170.985 151.427 172.393C152.584 173.475 153.472 173.112 153.006 171.535Z" fill="#191919"/>
<path d="M227.884 180.878C229.848 181.845 232.008 182.077 234.082 181.543C232.927 184.165 231.739 186.773 230.633 189.425C230.128 190.638 231.347 191.425 232.171 190.338C233.644 188.352 234.866 186.115 235.8 183.7C237.113 185.534 238.577 187.201 240.17 188.678C241.273 189.69 242.983 188.583 241.639 187.135C239.847 185.198 238.218 183.052 236.775 180.728C240.342 179.65 243.488 177.11 245.676 173.543C246.568 171.75 244.55 172 243.353 173.245C241.293 175.383 238.881 176.969 236.277 177.898C233.672 178.828 230.934 179.08 228.242 178.638C227.363 178.57 226.967 180.408 227.884 180.878Z" fill="#191919"/>
<path d="M264.85 131.853C264.501 135.381 264.888 138.959 265.976 142.26C266.461 143.65 267.661 143.235 267.425 141.728C267.117 139.742 266.997 137.721 267.067 135.702C267.754 137.627 268.885 140.202 269.568 142.142C270.549 144.912 272.201 144.643 270.723 139.785C270.162 137.943 269.895 136.715 269.348 134.808C272.729 138.443 273.319 141.64 274.281 141.213C276.256 140.34 270.178 131.648 268.881 130.01C266.343 126.798 265.215 127.463 264.85 131.853Z" fill="#191919"/>
<path d="M264.3 126.41C264.943 128.077 267.311 126.74 266.784 125.015C265.177 119.33 263.248 113.785 261.01 108.42C260.305 107.02 258.758 108.155 258.978 109.565C260.44 115.317 262.218 120.944 264.3 126.41Z" fill="#191919"/>
<path d="M278.028 67.03C277.887 65.6525 276.66 66.25 276.544 67.4775C276.272 70.3175 274.633 73.4775 273.451 72.7275C272.559 72.1625 271.466 66.0925 274.826 60.5775C278.392 54.725 282.576 62.4175 278.949 73.64C277.914 76.82 275.55 80.69 272.298 79.43C270.812 78.8575 270.497 80.93 271.981 81.49C279.773 84.455 284.17 70.6175 282.288 61.575C287.939 65.5636 294.26 67.9678 300.783 68.61C302.075 68.7275 302.39 66.7225 301.086 66.5025C285.354 63.8575 282.344 57.0725 278.262 56.03C272.766 54.63 268.404 66.5125 270.909 73.0575C273.24 79.12 278.605 72.69 278.028 67.03Z" fill="#191919"/>
<path d="M316.668 84.75C326.76 87.895 333.982 89.385 343.657 95.77C345.034 96.68 345.994 94.92 344.591 93.995C337.387 89.245 324.859 83.5825 316.778 82.775C315.584 82.66 315.468 84.3775 316.668 84.75Z" fill="#191919"/>
<path d="M326.122 73.4525C331.751 74.08 344.44 76.24 350.134 77.435C350.484 79.9153 350.421 82.4547 349.949 84.9052C349.477 87.3557 348.605 89.6681 347.385 91.7075C344.185 97.0025 352.527 94.4225 353.032 79.9075C353.169 75.975 352.923 74.8375 349.859 74.4075C343.523 73.4975 328.472 71.215 326.085 71.62C325.907 71.6625 325.747 71.7796 325.633 71.9508C325.52 72.1219 325.46 72.336 325.464 72.5552C325.469 72.7744 325.537 72.9847 325.658 73.1489C325.778 73.3131 325.943 73.4206 326.122 73.4525Z" fill="#191919"/>
<path d="M280.955 79.7925C279.746 79.965 280.127 81.9 281.298 81.85C286.492 81.6225 293.487 81.6925 298.686 82.1C300.212 82.22 299.883 80.0225 298.343 79.96C292.56 79.3414 286.745 79.2854 280.955 79.7925Z" fill="#191919"/>
<path d="M18.216 59.295C21.1616 62.655 23.2316 61.405 26.3097 59.0625C36.8108 51.0625 45.1156 49.4475 56.542 44.59C57.9145 44.0075 58.078 42.1425 56.542 42.5675C47.7094 45.0025 31.0231 51.0475 22.18 58.3175C20.2214 57.2628 18.5767 55.5099 17.4667 53.2939C16.3567 51.0778 15.8344 48.5048 15.97 45.92C16.3654 43.035 12.5711 42.755 13.8131 50.0525C14.4589 53.6068 15.9964 56.8342 18.216 59.295Z" fill="#191919"/>
<path d="M70.6802 25.8875C78.1352 23.2641 85.3288 19.6591 92.1316 15.1375C98.0415 21.46 99.2731 34.1975 97.1203 35.45C94.2844 37.1 89.0784 24.95 91.5313 22.175C92.438 21.1425 94.833 28.695 95.1311 29.6575C95.5906 31.1325 96.609 30.6575 96.2716 29.145C94.0464 19.21 93.235 18.5 88.3891 20.56C83.2679 22.745 77.267 25.26 73.2781 26.6175C72.1272 27.01 72.6322 28.6775 73.6921 28.46C76.648 27.85 85.4683 24.675 89.2481 23.115C88.5754 27.63 90.8275 32.5425 93.1915 35.865C67.9478 35.22 71.2764 39.945 73.363 39.4C82.0942 37.1175 92.7257 38.835 97.7889 38.255C103.287 37.6225 98.3354 18.625 94.45 13.725C91.5189 10.025 92.705 14.415 70.4029 24.2975C69.401 24.7325 69.6266 26.25 70.6802 25.8875Z" fill="#191919"/>
<path d="M17.1023 41.2225C23.2853 42.435 38.5433 39.0425 44.9707 36.5075C45.1975 36.4091 45.3836 36.2077 45.4894 35.9461C45.5952 35.6845 45.6122 35.3834 45.537 35.1069C45.4617 34.8303 45.3001 34.6002 45.0865 34.4653C44.8728 34.3305 44.6241 34.3017 44.3931 34.385C35.4437 37.0226 26.2797 38.453 17.0691 38.65C15.8251 38.6725 15.9203 41 17.1023 41.2225Z" fill="#191919"/>
<path d="M136.105 147.653C135.03 150.758 133.979 153.863 132.89 156.963C132.451 158.213 133.892 160.165 135.374 156.032C136.417 153.569 137.335 151.031 138.123 148.433C138.156 148.13 138.1 147.823 137.965 147.566C137.83 147.308 137.624 147.116 137.384 147.023C137.143 146.93 136.883 146.942 136.65 147.057C136.416 147.172 136.223 147.383 136.105 147.653Z" fill="#191919"/>
<path d="M128.684 105.05C130.772 94.1975 131.907 98.4125 131.886 98.8925C131.77 101.718 128.506 108.352 131.983 117.142C124.494 114.817 126.885 133.173 133.225 131.978C133.732 136.386 134.956 140.63 136.827 144.465C139.081 148.4 142.586 149.42 146.322 149.76C151.216 150.207 153.981 150.11 157.577 145.495C158.086 149.445 158.744 153.363 159.44 157.277C159.506 157.525 159.644 157.736 159.828 157.871C160.013 158.005 160.231 158.055 160.444 158.011C160.656 157.966 160.848 157.831 160.984 157.629C161.12 157.427 161.192 157.173 161.185 156.912C160.717 152.162 160.032 147.452 159.454 142.708C160.852 140.377 161.791 137.692 162.201 134.858C167.699 135.87 171.342 123.607 167.699 119.92C167.322 119.54 166.88 119.267 166.404 119.121C165.928 118.974 165.432 118.959 164.95 119.075C166.076 116.225 166.66 113.107 166.66 109.95C166.66 106.793 166.076 103.675 164.95 100.825C164.644 100.023 165.321 98.825 166.476 100.593C167.245 102.004 167.782 103.582 168.055 105.24C173.772 103.068 191.417 95.2825 191.417 91.9625C191.417 88.295 153.449 62.3725 148.283 61.3925C143.116 60.4125 104.813 87.6425 104.695 90.155C104.595 92.3875 122.062 102.25 128.684 105.05ZM136.929 83.11C145.26 80.07 156.672 82.705 162.131 85.1525C164.397 86.1675 164.615 86.2825 164.453 89.8825C164.328 92.1784 163.987 94.4497 163.437 96.6525C162.795 99.3375 161.201 98.31 161.499 96.3875C161.874 93.9625 162.327 90.1375 162.462 88.19C154.944 84.555 148.545 83.2425 137.001 85.3175C135.98 85.5 134.728 83.915 136.929 83.11ZM158.475 97.815C151.804 96.8617 145.074 96.6509 138.371 97.185C137.603 97.3025 135.372 95.645 138.62 95.0425C145.217 93.8813 151.919 93.8813 158.517 95.0425C159.986 95.2875 160.011 97.9775 158.475 97.815ZM133.356 86.815C133.373 86.5447 133.469 86.2906 133.627 86.0977C133.784 85.9049 133.994 85.7859 134.217 85.7619C134.441 85.7379 134.664 85.8105 134.847 85.9667C135.031 86.1229 135.162 86.3526 135.219 86.615C135.539 89.3645 135.714 92.136 135.74 94.9125C135.792 97.9125 133.724 97.7325 133.639 95.395C133.425 92.5418 133.33 89.6773 133.356 86.8125V86.815ZM135.5 117.035C136.672 113.432 137.559 109.704 138.152 105.9C144.836 106.885 151.587 107.04 158.297 106.365C158.531 110.934 159.621 115.379 161.485 119.365C162.859 121.937 163.348 122.54 164.453 121.955C169.214 119.43 166.254 133.838 162.118 131.648C161.046 131.08 160.669 132.543 160.442 133.605C159.855 137.786 158.189 141.637 155.681 144.605C153.362 147.4 149.442 147.825 146.061 147.443C142.681 147.06 139.839 146.248 138.16 142.465C136.629 138.922 135.651 135.068 135.275 131.098C135.101 129.433 134.461 128.553 133.474 128.973C129.924 130.473 129.127 121.752 130.12 120.06C130.671 119.13 131.619 119.828 132.511 120.26C134.55 121.448 134.79 119.265 135.5 117.035Z" fill="#191919"/>
<path d="M138.413 117.647C139.429 116.488 140.768 115.831 142.166 115.805C145.146 115.77 144.35 112.22 142.453 112.485C140.557 112.75 137.45 114.305 137.136 116.832C137.034 117.677 137.301 118.692 138.413 117.647Z" fill="#191919"/>
<path d="M155.811 122.392C155.133 121.736 154.273 121.418 153.407 121.501C152.541 121.585 151.734 122.065 151.151 122.842C150.671 123.555 151.056 124.37 151.756 124.038C152.943 123.489 154.247 123.425 155.467 123.855C156.492 124.197 156.386 122.875 155.811 122.392Z" fill="#191919"/>
<path d="M152.745 115.787C155.397 115.82 155.496 117.075 157.142 117.88C158.423 118.505 159.138 116.79 156.923 114.56C155.635 113.295 154.007 112.645 152.348 112.735C150.74 112.968 149.984 115.75 152.745 115.787Z" fill="#191919"/>
<path d="M149.516 131.803C150.216 131.385 150.344 130.158 149.187 130.328C148.219 130.463 147.24 130.401 146.289 130.145C146.433 127.716 146.792 125.312 147.361 122.975C147.622 121.648 146.695 120.2 145.465 124.17C144.981 125.728 143.784 130.495 144.654 131.738C145.351 132.735 148.607 132.348 149.516 131.803Z" fill="#191919"/>
<path d="M138.249 123.108C137.905 123.903 138.249 124.635 139.031 124.27C139.484 123.971 139.985 123.794 140.5 123.751C141.015 123.708 141.532 123.8 142.014 124.02C143.273 124.585 143.67 123.575 142.619 122.493C142.302 122.177 141.935 121.943 141.541 121.803C141.147 121.663 140.734 121.62 140.326 121.677C139.918 121.735 139.523 121.891 139.167 122.137C138.81 122.383 138.498 122.713 138.249 123.108Z" fill="#191919"/>
<path d="M151.468 142.077C154.215 140.597 155.513 135.802 155.136 132.02C155.002 130.657 154.6 129.96 153.542 131.255C152.589 132.691 151.38 133.849 150.004 134.642C148.629 135.435 147.124 135.843 145.6 135.835C144.151 136.002 143.879 136.85 144.639 138.557C145.239 140.035 146.259 141.203 147.512 141.849C148.766 142.495 150.169 142.576 151.468 142.077ZM153.488 134.01C153.364 140.317 149.365 142.84 145.958 137.545C147.356 137.72 148.769 137.49 150.078 136.874C151.388 136.257 152.557 135.272 153.488 134V134.01Z" fill="#191919"/>
<path d="M239.399 147.885C239.994 153.43 242.616 165.227 245.543 169.135C246.299 170.147 247.367 169.31 246.992 168.323C244.156 161.133 242.3 153.439 241.494 145.535C250.66 141.968 243.39 127.595 237.839 134.665C233.045 129.685 234.692 124.737 232.094 124.59C224.962 125.045 218.08 127.921 212.239 132.887C211.525 133.637 212.005 134.813 212.86 134.315C218.644 130.471 224.983 127.998 231.536 127.03C232.003 131.245 236.737 139.85 238.942 137.12C242.622 132.565 244.852 139.15 242.122 141.812C240.441 143.467 238.723 141.565 239.399 147.885Z" fill="#191919"/>
<path d="M238.176 157.875C238.71 156.863 238.081 155.72 237.326 156.68C234.964 159.68 232.103 163.43 228.696 163.835C218.94 165.018 215.831 145 214.748 137.085C214.541 135.56 213.262 135.988 213.374 137.45C214.123 147.258 217.331 166.163 227.953 166.345C228.31 169.646 228.48 172.973 228.462 176.303C228.462 177.96 229.685 178.41 230.207 176.303C230.567 172.904 230.525 169.461 230.083 166.078C233.526 164.643 236.409 161.722 238.176 157.875Z" fill="#191919"/>
<path d="M184.851 124.07C186.319 125.898 200.061 126.425 208.114 126.57C204.336 137.723 204.121 157.208 205.257 169.305C205.584 172.79 207.913 172.34 207.702 169.205C207.068 159.76 206.327 129.723 213.529 122.968C212.767 118.942 212.307 114.842 212.154 110.718C212.293 109.29 213.73 109.573 213.941 110.85C214.518 114.338 215.028 118.053 215.769 121.173C220.921 117.505 229.509 114.173 236.216 115.463C236.21 112.277 235.924 109.101 235.363 105.988C230.952 104.51 220.946 106.765 216.675 108.693C216.005 108.995 213.935 108.508 216.261 106.8C219.542 104.398 234.119 100.55 236.874 103.483C238.586 105.313 238.323 109.373 238.975 116.293C246.616 119.613 259.545 148.51 265.084 157.793C267.076 161.128 269.201 160.505 267.394 157.363C261.035 146.313 251.536 125.465 244.844 117.05C253.583 111.55 268.796 100.688 268.396 98.065C267.957 95.1775 224.208 82.685 218.679 84.2575C214.599 85.4 182.822 121.55 184.851 124.07Z" fill="#191919"/>
<path d="M228.696 138.857C228.43 138.686 228.137 138.587 227.836 138.565C227.535 138.544 227.234 138.601 226.954 138.734C226.673 138.866 226.419 139.07 226.21 139.332C226.001 139.593 225.841 139.907 225.742 140.25C225.535 141 225.742 141.677 226.441 141.047C227.042 140.428 227.808 140.093 228.598 140.102C229.451 140.102 229.546 139.272 228.696 138.857Z" fill="#191919"/>
<path d="M222.8 140.798C221.879 140.333 221.509 147.547 222.717 148.565C223.926 149.582 225.733 148.328 226.332 147.22C226.63 146.67 226.332 145.97 225.618 146.257C225.048 146.628 224.437 146.896 223.804 147.055C223.146 146.905 223.68 141.25 222.8 140.798Z" fill="#191919"/>
<path d="M219.103 135.67C218.399 135.731 217.73 136.069 217.199 136.632C216.668 137.196 216.305 137.954 216.164 138.79C216.023 139.607 216.659 139.967 217.083 139.337C217.787 138.467 218.669 137.838 219.64 137.512C220.327 137.18 220.095 135.577 219.103 135.67Z" fill="#191919"/>
<path d="M224.862 133.065C223.701 133.925 224.27 135.505 225.52 135.172C226.951 134.652 228.473 134.618 229.919 135.072C230.716 135.205 231.136 134.822 230.728 134.092C229.934 133.263 228.959 132.726 227.919 132.544C226.88 132.362 225.819 132.543 224.862 133.065Z" fill="#191919"/>
<path d="M225.905 155.022C230.252 158.887 235.657 154.585 233.19 146.257C232.627 144.365 231.815 144.432 231.182 146.257C230.08 148.939 228.245 151.078 225.988 152.315C224.698 153.02 224.802 154.042 225.905 155.022ZM232.008 148.217C232.927 152.647 230.352 156.647 226.882 153.717C229 152.529 230.782 150.617 232.008 148.217Z" fill="#191919"/>
<path d="M217.688 143.223C217.218 144.24 217.936 144.683 218.253 144.235C218.519 143.896 218.84 143.627 219.196 143.444C219.552 143.262 219.936 143.169 220.323 143.173C220.844 143.173 220.915 142.383 220.074 142.078C219.628 141.913 219.148 141.936 218.715 142.144C218.281 142.353 217.919 142.733 217.688 143.223Z" fill="#191919"/>
<path d="M216.067 181.75C195.193 163.792 182.74 159 165.045 157.437C158.396 167.956 152.679 179.289 147.991 191.25C141.217 180.713 132.532 168.48 129.371 154.458C110.778 141.795 101.38 128.75 94.8805 115.14C88.3807 101.53 74.5945 57.055 73.4167 54.05C67.2998 56.0925 55.3187 59.86 52.9692 59.86C55.4822 90.1975 64.6482 118.178 69.2519 132.285C73.8555 146.393 83.5017 172.347 103.914 207.963C101.962 236.175 82.0362 357.962 80.4713 365.195C110.935 375.733 165.434 383.195 194.346 377.99C191.736 354.09 191.599 227.24 190.413 210.27C196.961 198.431 205.756 188.652 216.067 181.75ZM171.433 166C163.774 180.75 157.701 196.228 150.301 210.71C149.077 213.1 147.531 213.255 145.931 211.108C137.345 199.608 127.835 181.235 124.163 166.448C123.749 164.79 125.032 164.075 125.715 165.653C132.997 182.433 137.657 194.23 148.266 208.803C154.38 193.177 161.603 178.221 169.854 164.1C170.696 162.647 173.056 162.938 171.433 166.075V166Z" fill="#191919"/>
<path d="M278.44 208.5C290.889 193.098 307.107 175.3 311.158 164.635C317.697 147.417 317.219 117.818 319.761 98.25C315.513 94.9325 304.934 92.31 300.042 91.6125C298.529 96.725 294.816 137.645 288.98 145.218C283.851 151.873 270.764 161.98 251.122 169.233C246.421 178.078 239.909 199.967 238.288 210.938C232.193 201.254 227.543 190.362 224.545 178.75C211.415 185.811 200.309 197.406 192.624 212.075C193.228 220.175 193.53 237.235 193.214 251.178C201.017 246.494 208.387 240.824 215.201 234.265C214.509 228.833 214.132 223.348 214.073 217.853C214.143 216.558 215.241 216.193 215.379 217.57C219.25 255.75 228.613 340.913 237.036 383.73C270.441 386.683 321.409 371.117 347.89 339.73C319.279 308.07 283.675 217.14 278.44 208.5ZM258.913 180.185C252.77 196.01 247.528 211.6 242.146 228.63C240.95 232.413 239.476 232.835 236.951 229.11C229.042 217.516 223.241 204.041 219.925 189.562C219.55 187.905 220.993 187.252 221.465 188.832C225.649 202.968 231.81 216.132 239.681 227.75C245.657 208.2 254.533 184.935 257.421 179.538C258.063 178.35 259.408 178.902 258.913 180.18V180.185Z" fill="#191919"/>
<path d="M114.599 463.128C114.67 464.788 114.821 474.33 114.049 475.325C112.403 477.453 76.3748 477.118 71.5186 476.985C73.7956 474.878 93.2536 465.395 96.9796 462.713C97.2252 462.528 97.4099 462.246 97.5018 461.915C97.5938 461.584 97.5872 461.225 97.4832 460.899C97.3792 460.573 97.1843 460.301 96.9322 460.13C96.68 459.959 96.3864 459.9 96.1019 459.963C86.8917 463.826 77.9686 468.623 69.4279 474.302C64.0604 478.642 67.5193 480.553 71.8063 480.74C84.3234 481.297 96.8566 481.015 109.348 479.895C116.715 479.217 117.263 478.41 117.593 470.202C117.646 467.793 117.582 465.382 117.4 462.982C117.38 462.535 117.216 462.115 116.942 461.812C116.668 461.51 116.307 461.349 115.937 461.365C115.753 461.374 115.573 461.427 115.406 461.521C115.239 461.615 115.089 461.747 114.965 461.911C114.841 462.075 114.745 462.266 114.682 462.475C114.619 462.684 114.591 462.906 114.599 463.128Z" fill="#191919"/>
<path d="M150.506 477.6C150.075 480.803 151.371 481.42 153.749 481.55C160.756 481.928 172.766 482.363 179.459 480.588C183.582 479.493 184.22 478.928 182.551 473.948C174.046 448.5 152.298 464.25 150.506 477.6ZM153.282 477.815C155.192 470.763 161.355 463.683 167.656 463.11C173.605 462.573 178.718 470.098 180.146 476.703C174.128 478.728 159.918 478.18 153.282 477.815Z" fill="#191919"/>
<path d="M322.591 75.675C323.215 74.5726 323.61 73.3043 323.742 71.9781C323.873 70.6519 323.738 69.3069 323.346 68.0575C323.223 67.7957 323.033 67.5893 322.804 67.469C322.575 67.3488 322.32 67.3212 322.077 67.3904C321.835 67.4597 321.617 67.622 321.457 67.8531C321.297 68.0842 321.203 68.3717 321.189 68.6725C321.386 70.6678 321.193 72.6909 320.626 74.58C320.159 76.14 321.423 77.385 322.591 75.675Z" fill="#191919"/>
<path d="M316.778 92.305C316.41 93.965 317.606 94.305 318.641 93.5825C319.676 92.86 321.065 87.4875 320.235 87.16C318.972 86.66 317.151 90.63 316.778 92.305Z" fill="#191919"/>
<path d="M311.597 73.965C311.299 77.2925 313.357 77.45 314.044 74.5625C314.731 71.675 314.601 64.5925 312.971 63.41C312.233 62.875 310.773 63.16 310.939 64.6225C311.634 67.6608 311.857 70.8285 311.597 73.965Z" fill="#191919"/>
<path d="M311.997 84.6875C312.181 87.475 315.019 87.575 313.86 82.6875C313.392 80.7275 310.353 76.8075 309.202 77.8725C307.747 79.205 311.723 80.5225 311.997 84.6875Z" fill="#191919"/>
<path d="M306.501 72.5225C306.381 75.4925 308.157 75.8425 308.836 73.1375C309.515 70.4325 308.836 64.7225 307.064 63.1775C306.854 63.03 306.613 62.961 306.371 62.9792C306.129 62.9975 305.897 63.1021 305.704 63.2799C305.511 63.4577 305.366 63.7006 305.287 63.9779C305.209 64.2552 305.201 64.5544 305.263 64.8375C306.137 68.5675 306.677 68.1225 306.501 72.5225Z" fill="#191919"/>
<path d="M318.592 75.5425C319.374 73.4425 319.776 67.5825 318.592 65.835C318.487 65.6842 318.359 65.56 318.215 65.4695C318.07 65.3791 317.912 65.3243 317.75 65.3082C317.588 65.2922 317.425 65.3152 317.27 65.376C317.115 65.4369 316.972 65.5342 316.849 65.6625C315.557 66.9875 317.737 69.4525 316.215 74.9275C315.75 76.6 317.509 78.455 318.592 75.5425Z" fill="#191919"/>
<path d="M305.36 87.69C305.399 84.04 302.075 77.44 302.928 75.16C303.541 73.8638 304.056 72.5033 304.466 71.095C304.632 70.315 304.389 69.235 303.311 69.9325C301.937 70.8639 300.874 72.3422 300.303 74.115C299.461 76.5825 301.802 86.015 303.311 88.3375C303.861 89.185 305.346 88.97 305.36 87.69Z" fill="#191919"/>
<path d="M46.0554 30.7325C44.9997 32.065 47.0345 33.3375 48.2682 36.325C49.8373 40.125 51.4332 38.415 50.5907 35.795C50.0939 34.2675 47.4878 28.9275 46.0554 30.7325Z" fill="#191919"/>
<path d="M68.3453 39.13C67.7421 41.0651 67.5067 43.1392 67.6565 45.1989C67.8063 47.2587 68.3374 49.2515 69.2105 51.03C69.8564 52.1575 71.3778 51.115 71.1481 49.8675C69.7487 42.275 70.3201 44.21 71.4917 37.7375C71.739 35.6526 71.5548 33.5261 70.9555 31.5481C70.3563 29.5702 69.3606 27.8023 68.0575 26.4025C67.035 25.28 65.8882 26.2175 66.4223 27.73C68.0244 32.2725 70.1151 32.645 68.3453 39.13Z" fill="#191919"/>
<path d="M53.8054 36.7075C54.3126 39.53 56.869 39.2075 55.8754 34.765C55.5595 33.3615 55.0115 32.0498 54.2644 30.909C53.5172 29.7682 52.5866 28.822 51.5284 28.1275C51.2976 28.0085 51.0395 27.9908 50.799 28.0776C50.5585 28.1643 50.3508 28.3501 50.2119 28.6025C50.0729 28.855 50.0115 29.1582 50.0384 29.4596C50.0653 29.761 50.1786 30.0415 50.3589 30.2525C52.1559 31.7846 53.3913 34.0984 53.8054 36.7075Z" fill="#191919"/>
<path d="M55.4552 53.9675C54.992 51.8957 54.244 49.9326 53.2424 48.16C51.9652 46.3675 50.2988 47.52 51.2635 49.4375C52.0736 51.0869 52.7814 52.8067 53.3811 54.5825C54.1615 56.8225 55.7988 55.4675 55.4552 53.9675Z" fill="#191919"/>
<path d="M57.873 35.33C58.7342 38.9475 60.7503 38.55 60.1004 34.285C58.6514 24.785 52.1992 24.2275 55.565 29.455C56.5822 31.2567 57.3609 33.2388 57.873 35.33Z" fill="#191919"/>
<path d="M58.995 47.795C60.237 48.0825 59.2868 44.5775 62.7065 40.6075C64.2176 38.8575 63.5345 38.3825 62.87 38.3575C59.9761 38.2975 56.7821 47.2825 58.995 47.795Z" fill="#191919"/>
<path d="M62.4229 32.1275C62.8804 35.5775 65.1677 34.55 64.6358 31.365C64.4624 29.9614 64.0337 28.6217 63.3805 27.442C62.7273 26.2624 61.8658 25.2722 60.858 24.5425C60.6526 24.4531 60.4291 24.4445 60.2195 24.5178C60.0098 24.5911 59.8247 24.7425 59.6905 24.9505C59.5564 25.1585 59.4802 25.4124 59.4728 25.6759C59.4653 25.9394 59.5271 26.199 59.6491 26.4175C60.9554 28.01 61.9092 29.9735 62.4229 32.1275Z" fill="#191919"/>
<path d="M380.319 375.815C379.077 367.518 378.104 364.47 370.261 365.858C368.419 366.183 368.886 368.793 370.741 368.595C375.674 368.075 376.225 369.943 377.021 374.803C378.439 383.455 382.439 403.213 381.145 409.92C380.731 412.078 380.182 411.67 379.178 410.202C374.192 402.865 370.791 391.835 365.438 384.86C364.585 383.75 363.113 384.61 363.815 385.973C367.611 393.315 372.679 405.308 376.442 411.43C380.205 417.553 383.834 414.897 384.101 408.112C384.505 398.452 381.76 385.458 380.319 375.815Z" fill="#191919"/>
<path d="M274.029 446.182C273.099 444.22 270.998 445.912 271.926 447.842C275.621 455.525 276.424 454.717 272.064 459.66C267.477 464.857 255.09 476.537 248.841 477.582C246.258 478.015 242.329 479.23 245.748 474.395C251.021 466.942 255.335 460.672 258.322 451.162C258.907 449.3 257.154 448.075 256.399 449.95C251.549 461.982 248.636 464.887 243.124 472.637C238.261 479.475 243.275 482.387 248.622 481.167C257.62 479.112 270.508 466.417 275.596 460.29C278.011 457.382 278.825 455.54 276.97 451.395C276.163 449.59 274.896 448.022 274.029 446.182Z" fill="#191919"/>
</g>
<defs>
<filter id="filter0_d_106_41" x="-4" y="0" width="422" height="508" filterUnits="userSpaceOnUse" color-interpolation-filters="sRGB">
<feFlood flood-opacity="0" result="BackgroundImageFix"/>
<feColorMatrix in="SourceAlpha" type="matrix" values="0 0 0 0 0 0 0 0 0 0 0 0 0 0 0 0 0 0 127 0" result="hardAlpha"/>
<feOffset dy="4"/>
<feGaussianBlur stdDeviation="2"/>
<feComposite in2="hardAlpha" operator="out"/>
<feColorMatrix type="matrix" values="0 0 0 0 0 0 0 0 0 0 0 0 0 0 0 0 0 0 0.25 0"/>
<feBlend mode="normal" in2="BackgroundImageFix" result="effect1_dropShadow_106_41"/>
<feBlend mode="normal" in="SourceGraphic" in2="effect1_dropShadow_106_41" result="shape"/>
</filter>
</defs>
</svg>
