<svg width="416" height="490" viewBox="0 0 416 490" fill="none" xmlns="http://www.w3.org/2000/svg">
<path d="M322.009 141.561C320.913 135.105 318.078 125.781 312.173 123.358C311.519 122.757 310.837 122.203 310.128 121.696C309.363 121.243 304.314 130.69 302.848 134.787C302.139 137.131 301.625 139.55 301.315 142.012C300.866 144.414 300.999 146.917 301.698 149.234C301.864 149.63 302.098 149.982 302.385 150.267C302.672 150.552 303.005 150.765 303.365 150.892C303.724 151.019 304.102 151.058 304.475 151.006C304.847 150.953 305.207 150.812 305.531 150.589C307.08 149.442 308.39 147.899 309.363 146.074C312.374 141.265 314.86 136.03 316.765 130.492C320.341 137.038 320.355 144.428 321.246 146.525C321.246 146.978 322.011 148.784 322.396 148.333C323.159 147.429 322.009 142.913 322.009 141.561Z" fill="#191919"/>
<path d="M382.185 240.882C372.22 238.172 323.927 226.427 310.128 222.823C308.894 222.307 307.602 222.003 306.295 221.921C305.529 221.921 305.529 222.372 304.762 222.823C303.063 223.844 301.259 224.604 299.395 225.082C297.508 225.603 295.583 225.905 293.646 225.983C293.448 226.001 293.262 226.102 293.121 226.268C292.981 226.434 292.895 226.654 292.881 226.887C293.263 230.048 294.031 232.755 294.414 235.915C295.558 245.348 302.644 246.421 307.827 250.37C308.988 251.252 312.044 253.982 310.128 255.787C306.914 258.816 299.853 259.156 297.856 257.593C296.132 256.642 294.335 255.887 292.49 255.337C290.371 255.165 288.295 254.554 286.358 253.531C282.306 251.145 284.249 248.557 283.675 245.855C283.292 244.953 282.909 244.953 282.142 244.049C280.991 242.695 280.991 240.438 280.609 239.083C280.01 236.117 279.626 233.097 279.458 230.055C279.444 229.821 279.358 229.602 279.218 229.436C279.077 229.27 278.891 229.169 278.693 229.151C275.188 230.203 271.574 230.659 267.96 230.506C264.511 230.506 261.061 230.957 257.612 230.957C257.413 230.974 257.227 231.075 257.086 231.241C256.945 231.407 256.859 231.627 256.845 231.861C256.845 238.765 256.595 242.753 257.995 244.953C258.378 246.306 259.145 247.21 258.762 248.565C258.378 250.821 256.462 251.725 254.929 252.176C252.646 253.572 250.574 255.402 248.797 257.593C245.782 260.663 242.032 262.556 238.064 263.01C236.739 263.149 235.409 262.836 234.231 262.108C233.465 261.204 234.231 260.753 234.616 259.849C237.749 255.33 240.329 250.316 242.28 244.953C242.788 242.441 242.918 239.843 242.663 237.278C242.663 235.021 242.28 232.311 242.28 230.055C242.28 228.078 239.491 230.405 225.033 225.54C224.648 217.864 224.648 210.19 224.266 202.965C224.225 202.624 224.091 202.307 223.883 202.064C220.212 201.092 216.502 200.338 212.767 199.805C211.407 199.805 210.664 198.56 207.786 200.258C188.026 207.66 189.255 207.331 174.056 212.447C173.672 212.447 173.672 212.898 173.672 213.351C176.5 236.665 176.962 243.954 180.188 251.272C182.861 257.338 187.088 258.867 187.088 263.914C187.171 264.656 187.127 265.411 186.959 266.133C186.791 266.855 186.502 267.531 186.109 268.12C185.716 268.709 185.227 269.199 184.672 269.562C184.116 269.926 183.504 270.154 182.871 270.235C181.978 270.392 181.065 270.312 180.202 269.999C179.338 269.687 178.544 269.15 177.879 268.429C173.021 265.156 169.832 259.274 169.832 261.204C168.601 262.266 167.138 262.892 165.616 263.01C163.698 263.01 163.698 259.399 163.698 258.044V248.565C163.074 244.182 158.538 223.366 157.949 219.219C157.949 218.768 157.566 218.317 157.183 218.768C154.676 219.731 152.114 220.485 149.517 221.024C149.134 221.024 149.134 221.475 149.134 221.928C147.873 245.693 145.974 252.517 147.218 253.982C148.059 256.882 148.321 259.971 147.984 263.01C147.984 265.173 147.603 268.89 145.3 268.89C144.535 268.89 143.767 268.439 143.002 268.89C141.852 269.341 141.084 271.146 140.702 272.05C138.414 275.645 134.204 279.724 130.354 279.724C129.465 279.705 128.592 279.453 127.796 278.987C127.001 278.521 126.303 277.852 125.755 277.029C123.402 272.411 130.757 264.338 132.652 259.879C133.565 257.614 134.087 255.158 134.187 252.654C134.376 244.804 133.992 236.95 133.037 229.178C133.021 228.944 132.936 228.725 132.795 228.56C132.654 228.394 132.468 228.294 132.269 228.276C92.2646 244.28 73.3179 249.381 58.2961 255.814C58.1305 255.872 57.985 255.99 57.8815 256.153C57.778 256.316 57.722 256.514 57.722 256.717C57.722 256.92 57.778 257.118 57.8815 257.281C57.985 257.444 58.1305 257.563 58.2961 257.62C105.72 278.313 141.43 293.473 220.426 318.569C299.52 285.295 343.955 262.424 382.554 242.722C382.951 241.786 382.951 240.882 382.185 240.882ZM218.905 235.915C218.523 235.915 218.021 235.256 218.523 235.014C218.716 234.918 219.9 234.316 217.757 232.755C216.245 231.655 209.554 232.265 205.874 234.11C201.922 236.435 205.055 237.572 205.491 237.721C208.145 238.302 210.853 238.454 213.541 238.172C213.782 238.147 214.023 238.228 214.216 238.4C214.41 238.571 214.543 238.82 214.59 239.1C214.638 239.379 214.596 239.67 214.473 239.915C214.35 240.161 214.154 240.344 213.924 240.431C208.345 243.716 201.978 241.264 200.893 238.172C199.645 234.622 202.446 231.765 205.491 230.498C209.888 228.359 214.799 228.199 219.29 230.048C219.861 230.28 220.388 230.64 220.844 231.106C221.063 231.331 221.237 231.611 221.353 231.925C221.469 232.24 221.524 232.581 221.514 232.923C221.504 233.266 221.429 233.601 221.294 233.905C221.16 234.209 220.97 234.474 220.738 234.681C220.158 235.153 219.545 235.567 218.905 235.915Z" fill="#191919"/>
<path d="M97.7891 113.57C97.6809 113.57 97.5811 113.594 97.4646 113.611C97.2755 113.511 97.0714 113.455 96.8639 113.448C96.6565 113.441 96.4499 113.482 96.2561 113.57C91.8008 115.737 87.1804 117.4 82.4574 118.536C73.6611 118.536 67.1653 121.243 69.8089 121.243C73.6416 120.384 77.5491 120.08 81.4445 120.337C80.9602 123.772 80.9139 127.273 81.3072 130.725C81.667 133.888 82.0747 137.496 84.3731 138.851C89.3526 142.203 94.9977 133.922 97.0216 127.564C98.1939 123.527 98.5889 119.233 98.1781 114.993C98.6461 114.317 98.7189 113.205 97.7891 113.57Z" fill="#191919"/>
<path d="M97.0216 106.798C96.2561 106.798 96.6388 109.493 97.4064 111.764C98.9162 117.035 98.9162 122.744 97.4064 128.015C95.7736 132.481 90.8897 138.851 87.8238 139.753C84.7579 140.655 85.1406 143.817 89.7395 143.367C94.3384 142.916 100.472 142.012 100.472 142.012C100.472 142.012 114.654 130.274 106.604 107.712L97.0216 106.798Z" fill="black"/>
<path d="M305.912 114.471C301.808 118.637 298.425 123.696 295.947 129.37C293.719 134.828 292.496 142.463 292.881 143.367C295.998 146.541 299.331 149.409 302.846 151.942C303.996 152.392 304.762 151.038 303.996 149.683C299.643 143.918 304.828 132.437 308.212 125.756C309.942 122.568 312.316 119.935 315.12 118.09C315.877 117.181 305.912 114.021 305.912 114.471Z" fill="black"/>
<path d="M223.506 47.655C220.717 53.3885 217.511 58.8266 213.924 63.9083C212.391 65.2631 213.924 67.5196 212.391 69.3252C212.008 69.776 205.874 69.776 207.024 72.0349C207.792 73.8406 210.09 79.7083 210.858 79.2575C218.138 76.5478 225.418 63.9083 226.572 60.7478C226.955 58.4913 223.506 46.7534 223.506 47.655Z" fill="black"/>
<path d="M243.052 104.088C242.874 99.5318 243.262 94.9692 244.202 90.5446C243.052 89.1898 243.437 86.9333 243.052 85.1277C236.912 89.18 234.624 97.3164 234.624 104.539C234.625 108.938 235.01 113.325 235.772 117.632C236.579 122.137 236.956 126.653 237.69 131.175C238.493 136.134 239.606 146.525 239.988 146.978C242.289 150.138 244.589 153.75 246.888 157.361C247.27 158.265 248.406 158.258 248.805 156.91C250.28 151.92 253.404 139.302 253.022 138.4C248.25 127.167 244.165 116.49 243.052 104.088Z" fill="black"/>
<path d="M267.584 150.138C261.701 129.355 267.679 105.61 256.851 86.4801C255.641 88.6238 254.227 90.5968 252.635 92.3601C254.348 101.243 255.121 110.341 254.935 119.447C254.935 127.574 255.701 145.633 256.085 146.084C258.769 150.599 261.077 155.565 263.75 160.081C264.133 160.982 265.666 160.531 265.666 159.627C265.666 156.91 267.966 150.589 267.584 150.138Z" fill="black"/>
<path d="M156.048 117.632C154.453 108.239 150.573 102.974 148.383 98.6713C147.018 96.899 145.858 94.9219 144.932 92.7913C144.55 91.4365 144.932 89.6308 144.55 88.2784C144.167 87.3744 143.017 86.9236 142.632 86.0195C142.249 85.5687 141.484 86.0195 141.099 86.4703C135.483 96.7456 141.981 110.431 144.55 118.977C145.654 122.588 146.047 126.448 145.7 130.264C145.581 134.511 144.665 138.673 143.017 142.453C142.781 147.423 142.909 152.407 143.399 157.351C143.399 158.255 144.167 158.706 144.932 158.255C149.029 153.737 152.87 148.909 156.431 143.8C157.529 139.405 158.046 134.837 157.964 130.257C157.198 126.209 156.815 122.147 156.048 117.632Z" fill="black"/>
<path d="M190.543 129.821C183.98 124.301 181.7 125.121 175.213 114.925C168.029 103.635 163.203 90.2433 156.815 86.485C154.898 85.1326 152.599 89.6455 153.747 91.4511C154.896 93.2568 156.431 94.6116 157.581 96.4173C159.683 100.511 161.602 104.73 163.33 109.059C165.329 113.523 167.611 117.593 169.847 122.152C174.389 131.418 178.861 135.475 187.477 141.113C187.859 141.566 192.843 139.307 194.757 138.856C195.524 138.405 195.907 137.501 195.141 136.6C193.993 134.787 190.927 130.274 190.543 129.821Z" fill="black"/>
<path d="M47.578 302.732C58.9799 313.591 71.1635 323.259 83.9904 331.627C98.0013 340.741 120.628 352.506 135.735 357.352C139.88 358.767 144.107 359.823 148.383 360.513C149.531 360.513 149.916 359.158 148.766 358.707C146.848 358.256 145.315 357.352 143.399 356.901C141.484 356.45 139.951 355.546 138.033 355.096C113.581 347.142 90.3122 334.808 69.0415 318.527C62.0756 313.228 54.86 308.141 48.3455 302.274C48.3269 302.202 48.2952 302.136 48.2527 302.08C48.2101 302.024 48.1576 301.98 48.099 301.95C48.0403 301.921 47.9769 301.907 47.9132 301.909C47.8495 301.912 47.787 301.93 47.7301 301.964C47.6733 301.998 47.6234 302.047 47.584 302.106C47.5447 302.165 47.5167 302.233 47.5022 302.306C47.4877 302.379 47.487 302.455 47.5001 302.529C47.5132 302.602 47.5397 302.672 47.578 302.732Z" fill="#191919"/>
<path d="M147.616 428.24C183.423 435.269 249.536 459.02 283.681 473.837C284.064 473.837 284.064 474.288 284.448 474.288C284.499 474.287 284.549 474.298 284.596 474.32C284.643 474.342 284.686 474.375 284.721 474.417C284.757 474.459 284.785 474.51 284.804 474.565C284.823 474.62 284.832 474.679 284.831 474.739H285.214C286.747 475.643 287.897 472.933 286.364 472.483C263.326 459.713 170.731 430.342 149.149 427.787C148.486 427.857 147.821 427.7 147.233 427.336C146.848 426.886 146.848 427.787 147.616 428.24Z" fill="#191919"/>
<path d="M25.7317 399.35C56.1808 399.35 91.3702 405.382 96.2561 407.026C99.3221 407.477 102.005 408.381 105.071 408.831C106.221 408.831 106.981 407.055 105.454 406.575C97.1817 403.966 62.9491 398.86 43.3617 398.448C37.2299 398.319 31.4808 398.448 25.3489 398.448C25.3489 398.443 24.96 399.35 25.7317 399.35Z" fill="#191919"/>
<path d="M42.979 300.025C34.9669 303.562 21.139 320.325 18.4496 326.661C17.4202 328.21 16.5216 329.873 15.7664 331.627C15.3837 332.98 16.5318 334.322 17.2993 332.98C18.0627 331.373 18.9617 329.861 19.9825 328.467C20.8849 326.854 21.9111 325.343 23.0485 323.951C27.1145 318.089 31.6024 312.651 36.4624 307.698C39.1456 305.442 41.8288 303.185 44.1293 300.926C43.7465 300.475 43.7465 300.025 42.979 300.025Z" fill="#191919"/>
<path d="M15.392 333.884C30.992 345.367 69.4449 362.215 94.7315 365.937C94.878 365.927 95.0157 365.851 95.1164 365.725C95.217 365.599 95.2731 365.432 95.2731 365.259C95.2731 365.087 95.217 364.92 95.1164 364.794C95.0157 364.668 94.878 364.592 94.7315 364.582C84.1316 362.201 73.6411 359.188 63.3006 355.554C41.7997 348.184 21.2659 335.559 16.1574 332.98C15.392 332.078 14.6162 333.445 15.392 333.884Z" fill="#191919"/>
<path d="M16.9166 339.301C12.3157 346.072 11.1675 354.65 10.7827 363.23C10.3521 367.804 9.99022 381.737 11.1675 387.607C11.8965 391.98 13.618 396.038 16.1491 399.35C16.2444 399.493 16.3644 399.611 16.5012 399.696C16.638 399.781 16.7886 399.83 16.9428 399.841C17.0971 399.852 17.2516 399.825 17.3962 399.76C17.5407 399.696 17.6719 399.596 17.7812 399.467C17.8905 399.338 17.9754 399.184 18.0302 399.013C18.085 398.843 18.1084 398.661 18.0991 398.479C18.0897 398.298 18.0477 398.12 17.9758 397.959C17.9039 397.798 17.8038 397.657 17.6821 397.544C13.4659 391.677 12.7005 384.001 12.7005 376.778C12.7005 365.391 12.4592 350.054 17.6821 340.209C18.0648 339.301 17.2993 338.85 16.9166 339.301Z" fill="#191919"/>
<path d="M323.159 366.841C322.169 360.02 319.657 353.631 315.879 348.331C313.617 345.666 310.772 343.792 307.66 342.915C304.548 342.038 301.29 342.194 298.249 343.365C297.864 343.365 297.099 343.816 296.714 343.816C268.813 351.328 230.433 363.379 187.479 364.582C186.713 364.604 186.713 365.486 187.479 365.937C226.826 368.387 280.394 350.632 289.815 348.787C282.878 356.958 279.234 366.905 275.255 377.229C274.912 378.806 274.397 380.324 273.722 381.744C250.026 386.238 226.049 388.351 202.049 388.063C194.769 388.063 187.866 388.063 180.583 387.612C179.818 387.612 179.818 388.516 180.583 388.516C204.572 390.914 228.701 390.611 252.641 387.612C267.093 385.706 269.516 385.534 274.104 384.452C274.872 384.001 275.255 382.646 274.489 382.195C277.273 373.39 281.009 365.044 285.605 357.364C288.985 351.389 292.993 346.964 299.019 346.077C301.777 345.175 304.692 345.175 307.451 346.077C312.443 347.883 315.478 353.312 317.416 358.719C329.524 392.465 306.746 472.487 286.37 472.487C281.378 472.487 278.379 466.607 277.172 462.104C275.698 456.704 274.923 451.073 274.872 445.4C274.506 425.736 278.467 406.294 286.37 388.967C289.02 384.287 293.442 376.778 298.253 376.778C303.618 375.874 306.382 382.631 307.068 387.612C308.605 398.779 304.834 408.145 303.235 413.798C295.57 413.347 287.911 412.217 280.238 411.992C280.16 411.986 280.081 412 280.007 412.031C279.934 412.063 279.866 412.112 279.809 412.175C279.752 412.239 279.706 412.315 279.675 412.4C279.644 412.485 279.628 412.577 279.628 412.669C279.628 412.762 279.644 412.854 279.675 412.939C279.706 413.023 279.752 413.1 279.809 413.163C279.866 413.227 279.934 413.276 280.007 413.307C280.081 413.339 280.16 413.352 280.238 413.347C287.903 414.248 295.57 415.152 303.618 416.042C304.385 416.495 305.151 416.946 305.535 415.591C308.031 409.491 309.588 402.918 310.134 396.177C310.492 390.297 310.111 383.109 306.683 378.121C305.222 375.726 303.02 374.104 300.552 373.605H295.185C293.27 373.605 291.354 374.056 289.436 374.056C286.025 374.805 282.555 375.108 279.088 374.96C278.321 374.96 278.321 375.862 279.088 375.862C282.535 376.087 285.989 376.087 289.436 375.862C290.6 375.935 291.765 375.783 292.887 375.411H292.502C287.961 379.733 284.404 385.319 282.154 391.664C276.943 404.752 273.7 418.805 272.571 433.199C271.954 439.498 271.954 445.86 272.571 452.16C273.053 458.263 274.765 464.142 277.563 469.31C282.231 476.868 290.832 478.441 300.943 464.797C307.915 455.389 312.081 443.587 315.503 432.29C319.79 418.189 322.37 403.447 323.167 388.499C324.623 381.381 324.62 373.957 323.159 366.841Z" fill="#191919"/>
<path d="M311.661 285.126C311.661 284.222 310.893 283.771 310.128 283.771C304.943 286.486 226.204 320.556 220.438 323.951C102.619 280.9 111.216 283.771 110.053 283.771C109.855 283.789 109.669 283.89 109.529 284.055C109.388 284.221 109.303 284.44 109.287 284.673C109.096 300.931 109.287 337.946 109.67 337.946C114.746 340.816 119.999 343.231 125.384 345.171C133.051 347.964 146.06 352.881 152.216 354.199C153.418 353.954 154.581 353.497 155.667 352.844C157.2 352.393 158.733 352.393 160.266 351.942C167.985 351.034 184.33 357.455 198.594 358.714C209.159 359.648 225.896 356.232 236.157 353.748C262.523 347.361 266.866 346.511 297.482 337.495C303.613 335.689 311.663 338.399 311.663 337.044C312.811 319.889 311.852 302.286 311.661 285.126Z" fill="#191919"/>
<path d="M246.503 69.335C244.189 74.527 242.756 80.2011 242.287 86.0391C242.287 90.748 243.375 91.8897 246.503 92.8109C247.868 93.3303 249.286 93.6343 250.719 93.7149C255.584 93.7149 257.321 89.349 258.384 83.7826C258.973 81.5807 259.359 79.3103 259.534 77.0108C259.502 76.8754 259.441 76.7514 259.359 76.6495C259.276 76.5477 259.174 76.4711 259.061 76.4264C258.947 76.3817 258.826 76.3704 258.708 76.3932C258.59 76.4161 258.479 76.4725 258.384 76.5576C256.117 81.901 256.096 90.6892 251.484 91.9093C249.943 92.1878 248.367 92.0324 246.886 91.456C243.872 90.5691 242.407 89.9272 243.82 82.881C244.631 78.8312 245.353 74.306 246.503 70.2415C247.268 69.335 246.769 68.7323 246.503 69.335Z" fill="#191919"/>
<path d="M239.986 75.6462C239.521 76.3579 239.269 77.231 239.269 78.1293C239.269 79.0276 239.521 79.9007 239.986 80.6124C240.15 81.1416 240.48 81.5769 240.908 81.8288C241.335 82.0808 241.829 82.1303 242.287 81.9672C242.669 81.9672 242.669 81.514 242.669 81.0632C241.372 79.5344 240.562 78.8435 240.754 77.4519C240.803 76.993 240.98 76.5663 241.257 76.2393C241.535 75.9123 241.897 75.7036 242.287 75.6462C243.117 75.6462 242.064 73.1987 239.986 75.6462Z" fill="#191919"/>
<path d="M259.534 84.6745C261.822 86.0244 264.033 83.1481 262.985 80.1616C262.74 79.2034 262.19 78.394 261.45 77.9027C260.682 77.5009 260.537 78.4931 260.684 78.8067C261.015 79.315 261.253 79.8978 261.385 80.5189C261.516 81.1401 261.539 81.7864 261.45 82.418C261.271 82.8331 260.996 83.1803 260.657 83.4199C260.319 83.6596 259.929 83.7819 259.534 83.7729C259.483 83.8312 259.441 83.9012 259.413 83.9786C259.385 84.0561 259.371 84.1394 259.371 84.2237C259.371 84.3079 259.385 84.3912 259.413 84.4687C259.441 84.5462 259.483 84.6162 259.534 84.6745Z" fill="#191919"/>
<path d="M209.708 78.3559C212.304 83.8415 215.387 88.9867 218.905 93.7051C224.68 102.109 225.322 102.106 226.185 103.637C227.146 105.07 228.314 106.293 229.634 107.249C230.017 107.249 230.402 107.249 230.402 106.798C229.493 103.591 221.813 94.8297 220.436 92.8011C216.986 88.2882 213.92 82.8688 210.469 78.3461C210.419 78.2864 210.36 78.2392 210.294 78.2072C210.228 78.1753 210.158 78.1593 210.087 78.1602C210.015 78.1611 209.945 78.1789 209.88 78.2126C209.815 78.2462 209.756 78.2949 209.708 78.3559Z" fill="#191919"/>
<path d="M228.105 107.7C226.955 121.243 226.955 135.24 226.955 149.234C226.955 173.303 226.487 208.301 227.723 219.211C227.723 219.391 227.783 219.563 227.891 219.689C227.998 219.816 228.144 219.888 228.297 219.888C228.449 219.888 228.595 219.816 228.703 219.689C228.81 219.563 228.871 219.391 228.871 219.211C229.255 213.331 228.871 207.023 228.871 201.152C228.871 193.479 229.255 114.471 229.255 107.7C228.489 107.249 228.105 107.249 228.105 107.7Z" fill="#191919"/>
<path d="M276.399 130.725C279.411 148.041 293.929 192.661 296.329 200.702C297.796 206.112 299.59 211.392 301.696 216.502C302.093 217.398 302.846 216.502 302.846 216.051C299.678 202.37 298.894 203.066 293.646 184.446C289.153 168.521 282.957 151.332 277.549 130.722C277.281 129.701 276.27 129.982 276.399 130.725Z" fill="#191919"/>
<path d="M220.44 22.8242C219.881 23.988 219.469 24.9484 218.523 24.1791C218.448 24.1178 212.075 16.5841 212.008 16.5032C211.623 16.0524 211.313 15.3125 210.473 15.1508C209.884 15.0357 209.362 15.7437 209.681 16.2607C210.373 17.3926 214.966 22.4347 216.062 23.7258C216.83 24.6299 217.98 26.4355 219.13 26.4355C220.28 26.4355 220.892 24.6544 221.21 23.2775C221.339 22.687 220.707 22.2681 220.44 22.8242Z" fill="#191919"/>
<path d="M205.491 19.6637C208.333 21.4792 208.322 22.8242 209.325 22.8242C209.708 22.8242 210.03 22.4347 209.708 21.9226C208.66 20.473 207.22 19.4921 205.631 19.1443C205.577 19.1391 205.524 19.1554 205.479 19.1907C205.435 19.226 205.401 19.2781 205.385 19.3385C205.369 19.3989 205.371 19.4639 205.39 19.523C205.409 19.5821 205.445 19.6317 205.491 19.6637Z" fill="#191919"/>
<path d="M202.426 25.9847C203.634 26.1946 204.801 26.6532 205.874 27.3396C206.729 27.7977 207.012 28.3196 207.407 27.7904C207.802 27.2612 206.977 26.4233 206.257 25.9847C205.104 25.1803 203.753 24.8623 202.426 25.0831C201.791 25.0905 201.783 25.997 202.426 25.9847Z" fill="#191919"/>
<path d="M201.658 33.2073C207.513 35.6965 211.004 35.846 212.774 38.6267C213.815 40.4885 214.713 42.4563 215.457 44.5067C216.424 46.7444 217.579 48.8621 218.905 50.8277C219.29 51.2785 220.056 50.8277 220.056 49.9237C219.308 47.4441 218.411 45.0305 217.373 42.7011C215.765 37.9628 213.837 35.1061 209.325 34.1261C207.037 33.6361 204.728 32.7541 202.426 32.3204C201.265 32.095 201.238 33.0309 201.658 33.2073Z" fill="#191919"/>
<path d="M254.552 71.5841C251.869 69.776 250.42 65.4591 247.653 64.3591C246.995 63.9888 246.275 63.7966 245.545 63.7966C244.816 63.7966 244.095 63.9888 243.437 64.3591C242.848 64.7858 242.362 65.3839 242.026 66.0957C241.691 66.8075 241.516 67.6092 241.519 68.4236C241.519 69.3252 242.287 69.3252 242.669 68.4236C242.93 67.8373 243.299 67.3271 243.749 66.9304C244.199 66.5336 244.718 66.2603 245.27 66.1304C245.821 66.0005 246.389 66.0174 246.934 66.1798C247.479 66.3421 247.986 66.6458 248.419 67.0688C250.006 68.6 251.391 71.5547 254.552 72.4857C254.552 72.4857 255.039 71.8389 254.552 71.5841Z" fill="#191919"/>
<path d="M244.97 61.1986C246.191 60.7574 247.481 60.6501 248.743 60.8849C250.004 61.1197 251.204 61.6903 252.25 62.5534C255.347 64.9863 255.515 69.776 256.466 69.776C256.664 69.7585 256.851 69.658 256.992 69.4926C257.132 69.3272 257.218 69.1079 257.234 68.8744C257.234 66.1794 254.388 62.5779 252.633 61.1986C251.46 60.2475 250.085 59.7013 248.663 59.6217C247.241 59.542 245.829 59.932 244.585 60.7478C244.585 60.7478 244.587 61.6518 244.97 61.1986Z" fill="#191919"/>
<path d="M258.769 61.6518C259.552 62.9429 260.064 64.4342 260.264 66.0034C260.463 67.5727 260.344 69.1753 259.917 70.6801C259.917 71.1309 258.769 73.8406 260.302 73.3898C261.835 72.4857 262.026 69.3595 261.835 67.0688C261.552 64.8932 260.755 62.8554 259.534 61.1888C259.151 60.76 258.544 61.3113 258.769 61.6518Z" fill="#191919"/>
<path d="M252.252 81.9672C250.456 81.8783 248.657 81.994 246.879 82.3126C246.124 82.4572 246.12 83.322 246.879 83.322H248.797C248.743 83.9202 248.82 84.5247 249.021 85.0776C249.222 85.6306 249.54 86.1135 249.945 86.4801C251.863 87.3841 253.013 85.5785 253.013 83.322C253.402 82.418 253.019 81.9672 252.252 81.9672ZM250.719 84.6622C250.574 84.4846 250.464 84.271 250.398 84.037C250.332 83.803 250.311 83.5546 250.336 83.3098H251.869C251.869 84.8851 251.68 84.6744 250.719 84.6744V84.6622Z" fill="#191919"/>
<path d="M250.917 79.3629C250.975 79.331 251.027 79.2848 251.07 79.2273C251.112 79.1699 251.144 79.1025 251.162 79.0297C251.512 77.7845 251.749 76.4993 251.869 75.1954C251.807 74.1885 251.019 74.774 250.719 75.6462C250.397 76.5821 250.255 77.1309 249.952 77.9027C249.82 78.341 249.82 78.8191 249.952 79.2575C250.076 79.6446 250.295 79.701 250.917 79.3629Z" fill="#191919"/>
<path d="M274.483 124.854C280.345 131.389 286.486 137.567 292.881 143.367C295.017 145.042 296.833 147.478 299.013 148.333C299.395 148.333 299.78 147.88 299.395 147.429C298.621 146.062 275.459 124.154 275.249 123.953C274.483 123.953 274.098 124.404 274.483 124.854Z" fill="#191919"/>
<path d="M326.993 114.471C324.48 114.866 317.693 116.867 315.609 116.272C293.386 109.914 286.73 98.5586 273.333 91.8995C269.675 90.0258 265.799 88.8085 261.835 88.2882C260.684 88.739 260.684 89.1898 261.067 89.1898C279.342 92.588 287.036 107.761 307.561 115.821C316.318 119.251 317.379 119.092 322.009 117.632C323.536 117.142 325.077 116.738 326.61 116.277C328.114 115.847 329.665 115.695 331.209 115.826C331.901 115.826 331.679 113.739 326.993 114.471Z" fill="#191919"/>
<path d="M329.805 119.817C329.821 119.785 329.83 119.748 329.833 119.71C329.835 119.673 329.829 119.635 329.817 119.6C329.805 119.565 329.786 119.534 329.762 119.509C329.738 119.485 329.709 119.467 329.678 119.457C329.131 119.3 328.752 120.192 328.526 120.792C326.541 126.146 332.792 128.076 335.042 130.725C336.592 132.55 336.082 132.52 336.498 132.716C336.588 132.771 336.689 132.797 336.791 132.791C336.892 132.786 336.99 132.749 337.075 132.684C337.161 132.62 337.23 132.53 337.277 132.424C337.323 132.318 337.345 132.199 337.341 132.079C337.341 131.244 335.556 128.806 335.344 128.561C333.116 126.018 330.913 126.885 329.591 123.12C329.431 122.582 329.368 122.011 329.404 121.442C329.441 120.874 329.578 120.321 329.805 119.817Z" fill="#191919"/>
<path d="M329.291 132.53C330.826 134.336 332.758 136.575 334.283 138.41C334.539 138.719 335.86 139.204 335.051 137.506C333.684 135.19 331.836 133.326 329.684 132.089C329.287 131.825 328.908 132.08 329.291 132.53Z" fill="#191919"/>
<path d="M327.758 142.463C328.174 143.443 329.066 143.974 328.908 141.561C328.85 140.659 326.993 135.24 325.842 137.046C326.326 138.922 326.968 140.737 327.758 142.463Z" fill="#191919"/>
<path d="M185.561 363.23C183.879 362.057 182.075 361.146 180.195 360.52C178.34 359.565 176.416 358.81 174.445 358.263C170.602 356.819 166.598 356.057 162.564 356.005C154.369 356.005 140.308 365.52 134.967 378.128C134.584 378.579 135.35 379.03 135.735 378.579C139.863 371.832 145.236 366.275 151.449 362.326C154.479 360.204 157.896 358.966 161.414 358.714C165.186 358.393 168.973 359.008 172.53 360.52C175.535 361.482 178.481 362.689 181.345 364.131C174.123 365.195 171.75 367.561 167.546 369.548C165.505 370.586 163.675 372.125 162.18 374.064C161.797 374.968 162.18 376.32 162.947 375.869C165.113 374.788 167.17 373.425 169.079 371.807C170.612 370.903 172.128 369.96 173.678 369.097C177.093 367.201 181.345 366.841 184.793 365.486H185.178C185.952 365.035 186.326 364.131 185.561 363.23Z" fill="black"/>
<path d="M177.129 379.03C175.57 377.618 173.76 376.642 171.835 376.172C169.91 375.703 167.919 375.753 166.013 376.32C159.663 377.453 153.506 379.769 147.774 383.18C146.871 381.849 145.743 380.752 144.463 379.959C143.182 379.166 141.776 378.693 140.333 378.572C137.135 378.594 134.033 379.871 131.518 382.2C126.526 387.144 123.086 398.003 130.368 402.966C131.771 403.807 133.318 404.262 134.892 404.298C136.465 404.334 138.026 403.95 139.456 403.174C142.332 410.137 147.397 415.684 152.214 420.569C154.891 423.286 157.972 427.836 162.18 426.89C166.019 426.026 168.74 421.059 170.997 417.409C175.96 409.782 179.132 400.751 180.195 391.223C180.569 386.703 180.195 381.739 177.129 379.03ZM170.997 412.438C169.67 414.52 167.151 420.124 164.097 422.821C163.428 423.542 162.573 423.979 161.668 424.061C160.763 424.143 159.861 423.866 159.105 423.274C157.608 422.057 156.198 420.697 154.889 419.21C148.757 412.889 143.314 406.617 139.558 397.993C139.167 397.094 138.025 397.539 138.025 398.894C138.233 399.711 138.469 400.504 138.734 401.273C137.915 401.747 137.021 402.014 136.109 402.055C134.819 402.141 133.526 401.989 132.276 401.604C130.806 401.058 129.579 399.851 128.861 398.246C128.143 396.64 127.992 394.765 128.442 393.029C130.458 382.555 139.807 377.055 147.129 383.555C144.539 384.972 142.122 386.793 139.942 388.967C139.558 389.871 139.932 390.753 140.708 390.322C147.437 386.583 147.131 384.799 162.171 379.485C165.651 378.211 169.356 378.055 172.904 379.035C174.66 379.533 176.176 380.832 177.12 382.646C177.747 384.513 178.009 386.523 177.886 388.526C177.894 397.089 174.828 405.215 170.997 412.438Z" fill="black"/>
<path d="M133.817 378.579C131.901 374.968 129.948 371.386 127.685 367.743C124.234 362.191 120.613 353.687 114.269 355.554C111.444 356.751 109.114 359.173 107.754 362.326C104.49 368.26 102.154 374.835 100.855 381.739C99.7423 388.068 98.9394 396.638 103.921 401.151C106.604 403.86 109.67 403.41 113.121 402.055C116.569 400.249 120.02 398.443 123.469 396.175C124.619 395.273 123.469 393.48 122.319 393.918C115.384 397.419 110.537 401.967 106.221 399.798C101.229 396.638 101.899 388.94 102.771 383.545C103.765 377.382 105.855 371.538 108.905 366.395C109.589 365.122 110.357 363.914 111.203 362.784C111.885 361.382 112.797 360.155 113.886 359.172C116.187 357.367 119.253 359.172 120.786 361.429C124.634 365.964 128.482 375.328 133.058 379.941C133.434 380.385 134.202 379.48 133.817 378.579Z" fill="black"/>
<path d="M123.852 397.089C121.025 399.096 118.657 401.886 116.952 405.215C114.675 408.689 111.961 411.733 108.905 414.244C104.533 418.091 99.7685 421.276 94.7232 423.725C92.8433 424.347 91.0395 425.253 89.3568 426.42C88.9741 426.873 88.9741 427.324 89.3568 427.324C89.3568 427.775 89.3568 428.228 89.7395 428.228C92.5716 429.369 95.569 429.828 98.5546 429.581C100.861 429.655 103.169 429.505 105.454 429.13C102.319 433.562 101.15 437.577 97.4064 444.932C96.2211 446.683 95.3122 448.671 94.7232 450.8C94.3384 451.704 95.4886 452.155 96.2562 451.704C97.618 450.199 98.6671 448.345 99.3221 446.285C102.59 439.871 105.335 432.881 108.905 428.679C109.088 428.51 109.22 428.276 109.281 428.011C109.342 427.746 109.328 427.465 109.241 427.21C109.155 426.955 109 426.74 108.801 426.598C108.602 426.456 108.369 426.393 108.137 426.42C103.556 427.023 98.9407 427.174 94.3384 426.873C95.1059 426.42 95.4886 426.42 96.2562 425.969C97.7891 425.068 99.7214 424.203 101.238 423.262C106.866 419.763 115.03 413.185 118.87 407.009C120.724 403.563 122.91 400.381 125.384 397.527C125.008 397.539 124.234 396.638 123.852 397.089Z" fill="black"/>
<path d="M144.167 422.38C143.211 417.048 141.664 411.887 139.566 407.031C139.471 406.946 139.36 406.89 139.242 406.867C139.125 406.845 139.004 406.856 138.891 406.9C138.778 406.945 138.676 407.021 138.594 407.122C138.511 407.223 138.451 407.347 138.418 407.482C139.535 411.778 140.431 416.15 141.099 420.574C141.866 425.09 142.249 429.603 142.632 434.118C142.704 435.096 142.605 436.082 142.341 437.013C142.078 437.945 141.655 438.803 141.099 439.535C137.563 443.7 132.583 447.941 128.827 451.726C127.072 453.085 125.404 454.594 123.835 456.239C123.069 457.143 121.919 457.594 121.152 458.498C121.101 458.497 121.051 458.507 121.004 458.529C120.957 458.552 120.914 458.585 120.879 458.627C120.843 458.669 120.815 458.719 120.796 458.775C120.777 458.83 120.768 458.889 120.769 458.949C120.769 447.6 120.875 446.559 120.386 445.405C120.386 444.954 120.386 444.501 119.619 444.05C118.851 443.599 118.086 444.05 117.32 444.05C116.555 444.05 116.17 444.501 115.403 444.501C113.87 444.954 112.337 444.954 110.804 445.405C108.503 445.856 106.205 445.856 104.287 446.307C107.355 444.05 110.421 441.341 113.487 439.084C116.553 436.828 119.592 434.076 122.685 431.408C125.415 429.141 127.547 426.011 128.835 422.38C130.327 417.845 129.985 413.352 130.368 408.836C130.368 408.386 129.601 407.482 129.601 408.386C127.14 414.905 129.707 422.106 120.786 429.603C117.522 432.898 105.487 441.512 101.234 445.405C101.077 445.596 100.961 445.828 100.894 446.082C100.827 446.336 100.812 446.605 100.85 446.867C100.887 447.129 100.976 447.377 101.11 447.591C101.243 447.805 101.417 447.98 101.618 448.1C104.801 448.535 108.016 448.535 111.199 448.1C112.732 448.1 114.265 447.649 115.415 447.649C116.183 447.649 116.948 447.198 117.716 447.198H118.481V461.653C118.496 461.887 118.582 462.106 118.723 462.272C118.864 462.437 119.05 462.538 119.248 462.555H120.016C120.781 462.104 121.549 462.104 122.314 461.653C124.186 460.556 129.178 456.494 129.981 455.773C133.047 453.064 136.113 449.893 139.179 447.198C141.862 444.489 144.847 441.769 145.311 437.266C145.651 432.264 145.264 427.229 144.167 422.38Z" fill="black"/>
<path d="M152.214 69.776C151.99 69.776 151.295 69.8667 152.599 72.9365C153.179 74.6582 153.44 76.5059 153.365 78.3559C153.25 78.9317 152.214 79.6618 152.214 80.6124C152.214 86.9554 152.487 87.6218 151.064 88.739C150.207 89.1086 149.294 89.2621 148.383 89.1898C147.233 89.1898 146.083 88.739 144.55 88.739C144.167 88.739 144.167 89.6406 144.167 89.6406C145.315 90.4543 146.617 90.9214 147.955 91.0004C149.294 91.0795 150.628 90.7681 151.84 90.0939C154.384 88.0947 152.99 83.8709 152.99 81.0632C153.292 81.0958 153.595 81.0287 153.866 80.8694C154.136 80.7101 154.364 80.465 154.523 80.1616C156.208 76.6605 152.601 70.2317 152.214 69.776Z" fill="#191919"/>
<path d="M145.315 80.605C145.005 81.0428 144.807 81.5746 144.742 82.1393C144.678 82.704 144.75 83.2788 144.95 83.7975C145.15 84.3162 145.471 84.7578 145.874 85.0716C146.278 85.3853 146.749 85.5585 147.233 85.5711C148.256 85.4511 148.878 84.9954 148.766 83.7655C148.714 83.2044 147.616 83.7655 146.848 83.7655C146.465 83.7655 146.083 82.8614 146.083 82.4106C146.083 82.418 146.465 79.2575 145.315 80.605Z" fill="#191919"/>
<path d="M149.148 65.7139C142.798 65.7139 142.216 73.9214 141.868 74.7422C141.486 75.1954 140.373 74.8451 139.568 75.1954C134.784 77.2755 137.451 85.8603 141.101 82.418C141.868 81.514 141.101 79.7083 140.336 80.6124C139.185 81.514 138.803 79.2575 139.185 78.3559C140.485 75.291 142.63 78.8165 144.177 75.1954C144.864 72.765 145.082 68.2105 149.926 67.0688C149.531 66.618 149.531 65.7139 149.148 65.7139Z" fill="#191919"/>
<path d="M147.616 62.1026C140.787 60.6326 136.151 74.948 139.566 72.9365C141.361 70.8222 140.437 65.8315 147.616 63.0042C147.998 63.0042 147.998 62.1026 147.616 62.1026Z" fill="#191919"/>
<path d="M149.148 59.3929C140.184 57.281 134.967 67.4975 134.967 71.5841C134.967 72.9806 136.883 73.576 136.883 69.776C137.793 66.9465 139.423 64.5173 141.55 62.8206C143.677 61.1238 146.197 60.2425 148.766 60.297C149.531 60.297 149.531 59.3929 149.148 59.3929Z" fill="#191919"/>
<path d="M136.883 83.7729C136.883 83.3221 136.5 82.8688 136.117 83.3221C135.402 84.7795 134.762 86.2866 134.202 87.835C132.883 88.2445 131.653 88.9808 130.596 89.9948C129.538 91.0089 128.676 92.2772 128.068 93.715C126.649 97.0592 134.145 95.9371 134.967 89.6504C135.996 87.9003 136.653 85.8845 136.883 83.7729Z" fill="#191919"/>
<path d="M129.601 86.9334C131.236 84.5604 132.649 81.9869 133.817 79.2575C133.817 76.1999 129.555 84.6745 128.835 84.6745C127.896 84.7473 126.982 85.0555 126.152 85.5785C124.827 86.703 122.312 88.2735 123.469 89.6406C125.085 91.5443 129.601 89.5818 129.601 86.9334Z" fill="#191919"/>
<path d="M128.068 81.0632C131.2 79.2183 131.88 77.0256 133.434 75.1832C133.817 74.7299 133.051 73.8283 132.667 74.2791C131.901 75.1832 128.068 78.7945 126.917 78.7945C126.535 78.7945 124.619 79.2453 123.851 79.2453C121.524 79.2453 119.806 81.3768 122.319 82.8566C125.293 84.6206 128.068 82.2759 128.068 81.0632Z" fill="#191919"/>
<path d="M147.233 72.4857C147.484 72.1893 151.185 69.776 147.615 69.776C146.17 69.776 146.274 73.6152 147.233 72.4857Z" fill="#191919"/>
<path d="M180.195 66.618C178.042 67.4608 178.104 68.4089 170.612 74.2914C167.638 76.4817 164.303 78.2457 160.957 80.4164C160.497 80.7128 160.705 81.5188 161.032 81.5188C164.644 80.1812 168.116 78.3639 171.38 76.1019C172.191 75.6119 180.477 68.6711 180.962 67.9753C181.305 67.4779 180.577 66.618 180.195 66.618Z" fill="#191919"/>
<path d="M184.793 95.06C182.573 96.5924 180.268 97.9495 177.894 99.1221C177.326 99.345 172.322 101.854 172.145 102.733C171.469 106.107 182.154 99.5778 185.405 96.1184C185.507 96.0151 185.572 95.8713 185.59 95.7145C185.607 95.5577 185.575 95.3988 185.5 95.2681C185.424 95.1374 185.31 95.0439 185.18 95.0056C185.05 94.9672 184.912 94.9866 184.793 95.06Z" fill="#191919"/>
<path d="M167.44 112.724C167.748 115.05 168.272 117.188 168.688 119.888C169.151 122.357 169.792 124.774 170.604 127.113C178.924 152.767 169.445 125.371 187.086 173.161C188.236 175.871 189.001 178.581 190.152 181.288C191.302 183.995 192.067 186.707 193.217 188.964C193.602 189.414 193.985 188.964 193.985 188.513C193.521 186.192 192.879 183.925 192.067 181.741C189.894 175.334 193.055 184.48 183.635 160.071C175.612 139.278 174.398 136 170.221 121.243C169.453 118.536 169.04 115.873 168.041 113.082C167.746 112.237 167.359 112.117 167.44 112.724Z" fill="#191919"/>
<path d="M137.268 93.7051C127.329 98.5243 117.449 105.894 106.987 105.894H101.62C99.7048 105.894 98.1718 105.443 96.2562 105.443C95.1059 105.443 95.1059 106.798 95.8713 107.249C102.527 109.86 111.197 107.521 118.102 105.894C125.223 103.434 131.955 99.6212 138.033 94.6067C138.018 94.3736 137.932 94.1546 137.792 93.9893C137.651 93.8239 137.465 93.7232 137.268 93.7051Z" fill="#191919"/>
<path d="M91.6552 143.367C115.929 144.08 138.761 127.564 134.202 127.564C128.866 129.659 122.612 135.441 113.886 137.496C106.756 139.873 99.4377 141.386 92.0463 142.012C91.2725 142.463 91.2725 143.354 91.6552 143.367Z" fill="#191919"/>
<path d="M95.8713 109.054C93.1549 108.253 91.5325 107.408 90.507 104.992C90.403 104.747 85.5837 95.6357 83.9904 95.06C80.9931 93.9722 83.0773 96.6917 83.2229 96.8656C83.8178 97.5639 89.0261 107.521 91.2725 109.505C94.9229 112.372 96.8614 109.054 95.8713 109.054Z" fill="#191919"/>
<path d="M82.0747 99.5729C82.0747 103.601 72.7542 97.3164 69.0414 97.3164C63.8414 97.3164 80.2734 104.848 81.6899 103.196C83.6846 102.41 82.0747 97.7354 82.0747 99.5729Z" fill="#191919"/>
<path d="M67.8933 107.249C78.3266 107.249 75.3043 105.894 73.2576 105.894C67.8454 105.894 66.8262 107.249 67.8933 107.249Z" fill="#191919"/>
<path d="M69.0414 114.471C70.3498 113.702 76.9704 112.374 74.7926 111.311C73.5155 110.689 65.7467 114.471 69.0414 114.471Z" fill="#191919"/>
<path d="M193.993 63.455C195.283 62.5411 198.307 54.6546 197.827 51.717C197.754 51.2736 197.059 50.813 196.676 51.2638C195.297 54.9232 194.145 58.6965 193.232 62.5534C193.232 63.0042 193.613 63.7269 193.993 63.455Z" fill="#191919"/>
<path d="M201.275 50.3646C201.275 51.7195 200.443 53.7261 202.041 54.4268C203.524 55.0736 205.161 53.6109 206.311 52.7118C208.327 51.5664 210.237 50.1762 212.008 48.5639C212.387 47.2066 210.793 47.2507 210.344 47.6109C209.895 47.971 203.397 52.4741 203.189 52.626C202.871 52.871 202.806 53.0768 202.424 53.0768C201.656 53.0768 201.752 51.4133 201.8 50.7763C201.87 49.9457 201.275 49.9114 201.275 50.3646Z" fill="#191919"/>
<path d="M216.166 52.555C216.058 52.4278 215.927 52.3302 215.783 52.2692C215.64 52.2082 215.486 52.1853 215.334 52.2022C213.063 52.4668 208.426 54.7551 209.331 56.2324C209.832 57.0532 210.579 56.5019 211.035 56.1516C214.741 53.2728 216.328 53.8461 216.524 53.2924C216.619 53.0033 216.416 52.849 216.166 52.555Z" fill="#191919"/>
<path d="M215.839 59.3929C214.74 59.2234 213.621 59.3376 212.563 59.7276C211.504 60.1177 210.53 60.7742 209.708 61.6518C209.325 62.1026 209.708 62.5534 210.09 62.5534C210.298 62.5534 215.631 60.8703 215.839 60.7478C216.224 60.297 216.605 59.4689 215.839 59.3929Z" fill="#191919"/>
<path d="M212.008 67.9703C211.622 67.8233 211.211 67.7877 210.811 67.8666C210.411 67.9455 210.032 68.1365 209.708 68.4236C200.427 68.1957 201.065 67.4558 198.84 67.9042C196.14 68.4983 193.575 69.75 191.31 71.5792C191.19 76.4615 191.707 81.3366 192.843 86.0342C193.226 87.389 193.993 88.2931 195.144 87.8398C196.184 87.0191 197.679 71.8928 196.88 70.2537C200.61 69.3374 202.33 70.6849 207.79 70.6849C209.414 70.9409 211.06 70.4563 212.391 69.3301C212.784 68.8744 212.391 68.4211 212.008 67.9703Z" fill="#191919"/>
<path d="M157.198 109.515C165.246 129.83 166.269 152.446 171.38 174.075C172.126 177.24 172.854 179.955 173.668 183.103C174.267 186.007 175.306 188.76 176.736 191.23C177.118 191.683 177.501 191.23 177.501 190.779C177.501 186.585 174.774 182.787 173.668 174.979C172.53 169.54 171.288 164.15 170.229 158.716C167.559 144.996 164.821 123.578 157.581 109.054C157.394 108.68 156.963 109.054 157.198 109.515Z" fill="#191919"/>
<path d="M220.441 239.98C225.391 241.923 224.012 241.232 231.171 244.042C232.395 244.602 233.692 244.908 235.005 244.946C235.77 244.946 235.77 243.591 235.387 243.138C234.379 242.291 233.177 241.82 231.939 241.786C230.837 241.27 229.672 240.965 228.488 240.882C226.2 240.431 223.506 239.527 221.208 239.076C220.064 238.172 219.673 239.527 220.441 239.98Z" fill="black"/>
<path d="M304.762 250.363C304.435 250.133 306.686 251.497 296.329 245.397C294.761 244.211 293.578 242.436 292.974 240.36C293.403 240.215 293.555 239.87 293.263 239.527C292.184 234.872 291.443 229.81 290.405 225.099C292.405 224.61 294.382 224.002 296.329 223.276C298.707 222.676 301.021 221.767 303.229 220.566C303.994 220.115 303.611 218.761 302.463 218.761C296.708 220.115 297.964 221.21 289.815 222.823C281.351 224.871 272.76 226.1 264.127 226.498C263.998 222.475 261.851 221.475 258.769 200.706C257.202 190.171 256.381 175.961 255.068 157.366C255.068 157.243 254.937 157.175 254.935 157.366C254.994 175.855 256.534 194.296 259.534 212.444C260.359 217.223 261.408 221.944 262.675 226.586C251.894 227.201 238.052 227.022 227.731 223.281C227.346 223.281 226.963 223.732 227.346 224.182C232.797 226.188 238.405 227.547 244.086 228.237C243.92 229.195 244.211 228.259 244.211 234.117C244.288 236.249 244.545 238.366 244.978 240.438C244.978 240.683 245.394 240.869 246.056 241.002C245.27 244.496 243.999 247.814 242.295 250.821C241.528 252.176 240.379 253.531 239.612 254.883C238.5 256.362 237.594 258.039 236.929 259.852C236.929 260.303 236.929 260.753 237.696 261.204C244.211 262.559 248.044 255.324 253.028 252.176C254.176 251.725 255.709 251.272 256.094 249.92C257.215 247.276 254.396 244.441 253.182 241.305C253.936 241.206 254.684 241.05 255.422 240.84C256.15 240.637 255.659 239.414 255.711 237.728C255.738 236.925 255.711 231.821 255.711 229.122C263.681 229.398 271.657 228.842 279.544 227.458C280.284 232.454 281.285 237.392 282.541 242.244C282.541 242.695 282.926 243.145 283.691 243.145C284.38 243.045 285.047 242.92 285.707 242.773C285.613 244.737 285.323 246.681 284.841 248.565C284.747 249.011 284.732 249.475 284.799 249.928C284.865 250.381 285.012 250.813 285.228 251.196C285.445 251.578 285.727 251.903 286.057 252.15C286.386 252.396 286.756 252.559 287.142 252.627C288.515 253.166 291.705 253.298 294.039 253.982C296.154 254.756 298.344 255.211 300.556 255.337C309.487 255.329 306.496 251.578 304.762 250.363ZM254.176 249.459C254.176 249.912 253.411 250.363 253.028 250.363C252.26 250.814 251.869 250.797 251.11 251.265C247.144 253.715 243.58 260.222 238.46 260.004C239.136 258.672 239.906 257.41 240.762 256.231C241.528 254.876 242.678 253.07 243.445 251.718C244.978 248.557 246.894 244.946 246.511 241.332C246.657 240.823 246.027 241.332 251.503 241.332C252.035 243.403 252.808 245.377 253.802 247.198C254.056 247.482 254.229 247.852 254.296 248.258C254.364 248.663 254.321 249.083 254.176 249.459ZM253.793 239.076C253.411 239.076 252.643 239.527 252.26 239.527C250.357 239.855 248.435 240.006 246.511 239.98C246.511 239.735 245.744 234.747 245.744 234.1C245.643 232.174 245.448 230.257 245.161 228.357C248.03 228.698 250.908 228.911 253.793 229.033V239.076ZM284.072 241.332C283.111 238.5 280.636 227.507 280.575 227.262C285.131 226.409 287.627 225.66 288.802 225.442C289.563 230.136 290.63 234.808 291.356 239.076C288.99 240.092 286.549 240.845 284.064 241.325L284.072 241.332ZM302.087 254.425C297.858 254.653 294.037 252.619 290.206 252.169C288.881 252.309 287.55 251.995 286.372 251.265C285.607 250.814 285.99 249.912 285.99 248.557C286.579 246.656 286.698 244.596 286.331 242.619C288.096 242.17 289.834 241.579 291.531 240.85C292.154 242.511 292.996 244.046 294.027 245.397C294.877 246.543 295.923 247.466 297.095 248.107C297.446 248.312 304.999 252.911 305.527 253.524C305.321 253.604 305.078 254.266 302.078 254.425H302.087Z" fill="#191919"/>
<path d="M198.209 194.381C196.676 192.575 193.617 193.082 191.31 193.479C174.604 196.348 155.775 212.998 130.751 222.823C127.601 224.394 124.18 225.065 120.767 224.783C121.31 222.808 121.682 220.632 122.316 218.765C125.796 194.18 127.876 162.533 129.596 136.146C129.214 135.696 128.446 135.696 128.446 136.146C125.447 162.913 123.997 189.574 120.399 216.96C119.877 219.515 119.594 222.13 119.554 224.758C119.138 225.003 119.043 225.537 119.631 225.537C119.631 225.988 120.399 226.441 120.399 225.988L120.447 225.841C125.141 227.372 130.064 225.314 134.509 223.364C134.432 230.173 136.113 237.684 136.113 246.757C136.471 250.76 135.943 254.804 134.58 258.495C133.047 262.557 130.672 266.121 128.831 270.233C128.584 270.612 128.419 271.058 128.352 271.53C128.285 272.002 128.317 272.486 128.446 272.94C128.446 275.199 130.356 275.605 131.897 275.199C133.635 274.405 135.205 273.172 136.496 271.587C138.412 268.878 140.329 266.168 142.245 263.012C142.245 263.012 144.545 265.722 145.311 263.466C145.311 258.669 144.545 256.434 144.545 253.533C144.545 251.316 145.696 242.508 145.696 237.28C146.056 230.898 146.417 224.119 146.777 217.68C151.297 215.451 155.438 213.255 159.257 211.163C161.56 225.148 167.149 250.079 167.149 250.363C166.629 253.332 166.5 256.377 166.766 259.391C166.766 260.746 168.299 261.197 169.054 259.845C169.428 258.843 169.946 257.927 170.587 257.135C170.972 257.586 171.355 258.036 171.355 258.49C172.603 260.477 174.164 262.163 175.953 263.456C177.472 264.919 179.151 266.133 180.945 267.067C181.312 267.337 181.726 267.505 182.156 267.558C182.586 267.611 183.02 267.549 183.426 267.375C183.832 267.201 184.2 266.92 184.5 266.554C184.8 266.188 185.026 265.746 185.16 265.261C184.8 262.841 184.017 260.535 182.861 258.49C181.678 256.447 180.398 254.484 179.028 252.61C177.546 250.926 176.6 248.695 176.344 246.289C175.579 242.227 175.252 237.699 174.429 233.196C173.351 227.316 172.623 221.436 171.746 215.59C171.54 212.025 171.052 208.49 170.29 205.031C178.982 200.226 185.948 196.681 192.442 195.721C193.712 195.495 195.003 195.495 196.273 195.721C198.191 196.622 197.04 198.881 196.273 200.236C195.89 200.687 196.658 201.591 197.04 201.138C198.592 199.8 200.125 196.637 198.209 194.381ZM140.333 258.036C139.528 259.729 138.493 261.255 137.268 262.552C136.117 263.907 134.967 265.712 133.434 266.163C133.986 264.898 134.627 263.69 135.35 262.552C136.474 260.113 137.373 257.54 138.033 254.876C139.052 248.876 137.808 238.635 136.883 230.498C136.573 227.754 136.512 225.353 136.003 222.705C139.493 221.176 142.792 219.646 145.9 218.114C141.024 261.268 142.23 253.575 140.333 258.036ZM171.762 229.144C172.13 234.112 172.912 239.076 173.295 244.042C173.38 245.434 173.639 246.804 174.063 248.107C174.9 250.936 176.202 253.543 177.894 255.78C178.662 256.684 180.577 258.49 180.577 259.845C179.044 260.295 177.53 258.455 176.361 257.586C174.539 255.998 172.869 254.181 171.38 252.169C170.997 251.265 170.229 250.814 169.847 249.912C169.847 249.008 169.462 248.557 169.079 247.653C168.049 242.159 166.769 236.733 165.246 231.4C163.79 224.498 161.965 217.594 160.135 210.69C163.288 208.96 166.232 207.307 168.998 205.768C169.088 206.361 169.244 206.938 169.462 207.483C170.536 214.653 171.304 221.883 171.762 229.144Z" fill="#191919"/>
<path d="M238.838 89.6406C228.109 67.1766 227.527 58.4497 223.417 43.8918C222.912 41.739 222.683 39.5093 222.739 37.2768C222.739 31.6418 224.833 30.1718 225.805 25.088C226.152 23.2701 226.807 20.8544 225.805 19.208C225.74 19.0998 225.653 19.0116 225.553 18.9507C225.453 18.8898 225.342 18.858 225.23 18.858C225.117 18.858 225.006 18.8898 224.906 18.9507C224.806 19.0116 224.72 19.0998 224.655 19.208C224.239 20.09 224.655 21.0137 224.655 22.3685C224.386 25.5234 223.606 28.5882 222.356 31.3968C221.464 35.2388 221.464 39.2927 222.356 43.1347C223.018 51.0041 219.673 54.4047 219.673 56.2275C219.672 56.2871 219.681 56.3463 219.7 56.4016C219.719 56.4569 219.747 56.5071 219.783 56.5493C219.818 56.5914 219.861 56.6245 219.908 56.6467C219.955 56.6689 220.005 56.6797 220.056 56.6783C220.873 55.9741 221.532 55.0446 221.973 53.9711C224.357 49.1103 222.156 46.0429 225.039 56.2275C228.434 68.2203 232.051 79.8039 238.453 90.089C238.838 90.5447 239.221 90.0939 238.838 89.6406Z" fill="#191919"/>
<path d="M405.184 416.049C399.125 415.03 398.353 416.39 387.937 414.694C379.768 413.577 371.995 409.941 365.4 404.155C358.805 398.37 353.622 390.638 350.374 381.739C349.179 378.453 348.529 374.928 348.458 371.354C348.458 370.903 348.841 370.903 349.226 370.903C350.854 374.532 353.067 377.752 355.74 380.385C359.355 383.881 363.528 386.49 368.012 388.058C371.991 389.738 376.102 390.949 380.284 391.672L381.435 394.367C382.276 396.796 382.541 399.449 382.202 402.043C382.057 404.683 381.539 407.277 380.669 409.716C380.284 411.071 381.435 411.524 382.202 410.62C385.268 407.46 385.268 401.592 384.885 397.076C384.5 395.271 384.118 393.916 383.735 392.561C386.072 393.299 388.279 394.522 390.252 396.172C391.321 396.996 392.228 398.08 392.912 399.35C393.695 400.604 394.339 401.969 394.83 403.415C394.923 403.589 395.061 403.724 395.224 403.801C395.387 403.877 395.566 403.891 395.735 403.841C395.905 403.791 396.057 403.679 396.17 403.521C396.283 403.363 396.35 403.167 396.363 402.961C395.98 397.995 391.787 393.406 388.313 391.677C386.354 390.635 384.295 389.877 382.181 389.418C381.378 387.841 380.481 386.333 379.498 384.905C373.083 376.271 364.139 373.635 356.884 369.553C353.018 367.38 349.219 363.235 348.452 358.268C349.325 348.67 349.453 338.999 348.835 329.373C346.158 254.893 307.513 262.312 282.144 256.689C275.642 255.246 269.495 254.43 262.981 252.624C262.806 252.639 262.64 252.719 262.506 252.851C262.371 252.984 262.276 253.163 262.234 253.363C262.191 253.563 262.203 253.774 262.268 253.966C262.333 254.157 262.448 254.32 262.596 254.43C289.392 263.782 305.28 260.156 321.239 269.329C329.085 274.12 335.305 281.924 338.869 291.45C346.592 310.513 346.84 343.218 345.003 364.136C344.619 365.491 344.619 366.846 344.236 368.201C338.828 387.281 334.273 406.085 342.32 424.181C343.631 426.915 345.171 429.486 346.919 431.857C348.101 433.689 349.695 435.094 351.52 435.914C352.288 436.365 353.053 435.463 352.288 434.559C351.137 432.753 349.604 431.398 348.454 429.593C347.304 427.787 346.154 425.531 345.005 423.725C338.025 408.927 340.612 392.948 343.855 377.665C344.238 376.31 344.592 375.406 343.855 386.24C343.386 392.02 343.908 397.852 345.388 403.39C348.648 414.905 356.111 417.076 364.168 425.511C368.002 430.026 369.535 436.345 370.3 442.661C370.3 443.565 371.835 443.565 371.835 442.21C372.115 436.505 370.911 430.835 368.385 425.957C365.787 421.376 362.184 418.852 358.419 415.574C348.157 406.651 347.125 402.209 346.147 388.487V376.32C346.147 375.869 346.584 375.404 347.298 379.03C348.826 385.582 351.431 391.718 354.964 397.089C362.057 408.096 373.393 414.484 384.86 416.953C389.782 418.08 394.797 418.535 399.807 418.308C401.495 418.229 403.169 417.925 404.799 417.404C405.565 417.404 405.949 416.5 405.184 416.049ZM351.52 368.647C354.962 371.832 358.855 374.277 363.018 375.869C368.925 378.312 374.113 382.7 377.967 388.511C376.434 388.058 374.514 387.617 372.975 387.156C364.15 384.501 354.962 379.934 350.361 370.006C349.989 368.196 350.372 367.292 351.52 368.647Z" fill="black"/>
<path d="M147.616 75.1954C147.616 75.5547 147.737 75.8993 147.952 76.1534C148.168 76.4075 148.461 76.5503 148.766 76.5503C149.071 76.5503 149.363 76.4075 149.579 76.1534C149.795 75.8993 149.916 75.5547 149.916 75.1954C149.916 74.8361 149.795 74.4915 149.579 74.2374C149.363 73.9833 149.071 73.8406 148.766 73.8406C148.461 73.8406 148.168 73.9833 147.952 74.2374C147.737 74.4915 147.616 74.8361 147.616 75.1954Z" fill="#191919"/>
<path d="M187.094 94.156C187.306 94.374 187.579 94.4941 187.86 94.4941C188.142 94.4941 188.414 94.374 188.627 94.156C189.717 93.3646 190.743 92.4576 191.693 91.4463C192.46 90.5447 193.611 89.6406 194.376 88.739C195.144 88.2882 195.909 86.4801 194.759 86.0293C194.263 85.8254 193.823 85.4673 193.486 84.9928C193.148 84.5184 192.926 83.9453 192.843 83.3343C191.878 79.6593 192.076 75.6095 192.076 65.7262C192.268 63.6252 192.268 61.5061 192.076 59.4052C191.31 57.5995 188.627 59.856 187.859 60.76C186.326 62.1149 184.028 63.4697 183.26 65.7262C182.069 73.4388 182 89.0061 187.094 94.156Z" fill="black"/>
<path d="M254.552 75.6462C255.565 75.6462 255.565 78.3559 254.552 78.3559C253.54 78.3559 253.537 75.6462 254.552 75.6462Z" fill="#191919"/>
<path d="M248.036 73.8406C249.051 73.8406 249.051 76.5478 248.036 76.5478C247.021 76.5478 247.021 73.8406 248.036 73.8406Z" fill="#191919"/>
</svg>
