<svg width="250" height="49" viewBox="0 0 250 49" fill="none" xmlns="http://www.w3.org/2000/svg">
<g filter="url(#filter0_d_651_158)">
<path d="M28.44 9.96C31.68 9.96 34.356 10.272 36.468 10.896C38.58 11.52 40.236 12.372 41.436 13.452C42.636 14.532 43.476 15.768 43.956 17.16C44.46 18.528 44.712 19.968 44.712 21.48C44.712 22.992 44.436 24.444 43.884 25.836C43.332 27.204 42.42 28.428 41.148 29.508C39.9 30.588 38.232 31.44 36.144 32.064C34.08 32.688 31.512 33 28.44 33H2.52V9.96H28.44ZM11.52 25.8H28.08C29.424 25.8 30.564 25.716 31.5 25.548C32.436 25.356 33.18 25.08 33.732 24.72C34.308 24.36 34.716 23.916 34.956 23.388C35.22 22.836 35.352 22.2 35.352 21.48C35.352 20.76 35.22 20.136 34.956 19.608C34.716 19.056 34.308 18.6 33.732 18.24C33.18 17.88 32.436 17.616 31.5 17.448C30.564 17.256 29.424 17.16 28.08 17.16H11.52V25.8ZM109.053 26.024H113.373C113.458 26.7493 113.789 27.4107 114.365 28.008C114.962 28.584 115.741 29.0427 116.701 29.384C117.661 29.704 118.738 29.864 119.933 29.864C121.021 29.864 121.917 29.7467 122.621 29.512C123.325 29.2773 123.848 28.9467 124.189 28.52C124.53 28.0933 124.701 27.5813 124.701 26.984C124.701 26.408 124.488 25.9707 124.061 25.672C123.634 25.352 122.962 25.096 122.045 24.904C121.128 24.6907 119.922 24.4773 118.429 24.264C117.256 24.0933 116.146 23.8587 115.101 23.56C114.056 23.24 113.128 22.8347 112.317 22.344C111.528 21.8533 110.898 21.256 110.429 20.552C109.981 19.8267 109.757 18.9733 109.757 17.992C109.757 16.776 110.098 15.7093 110.781 14.792C111.485 13.8747 112.52 13.16 113.885 12.648C115.25 12.136 116.925 11.88 118.909 11.88C121.896 11.88 124.189 12.52 125.789 13.8C127.41 15.0587 128.2 16.7973 128.157 19.016H123.997C123.912 17.7573 123.378 16.8507 122.397 16.296C121.437 15.7413 120.221 15.464 118.749 15.464C117.384 15.464 116.253 15.6667 115.357 16.072C114.482 16.4773 114.045 17.1707 114.045 18.152C114.045 18.536 114.152 18.8773 114.365 19.176C114.578 19.4533 114.941 19.6987 115.453 19.912C115.965 20.1253 116.658 20.328 117.533 20.52C118.408 20.712 119.496 20.904 120.797 21.096C122.013 21.2667 123.112 21.5013 124.093 21.8C125.096 22.0773 125.949 22.4507 126.653 22.92C127.378 23.368 127.933 23.944 128.317 24.648C128.701 25.352 128.893 26.216 128.893 27.24C128.893 28.4987 128.562 29.5973 127.901 30.536C127.261 31.4533 126.258 32.168 124.893 32.68C123.549 33.192 121.8 33.448 119.645 33.448C118.109 33.448 116.754 33.288 115.581 32.968C114.408 32.6267 113.394 32.1787 112.541 31.624C111.688 31.0693 110.994 30.4613 110.461 29.8C109.928 29.1387 109.544 28.4773 109.309 27.816C109.096 27.1547 109.01 26.5573 109.053 26.024ZM150.984 26.728C150.877 28.1147 150.429 29.3093 149.64 30.312C148.872 31.3147 147.805 32.0827 146.44 32.616C145.074 33.128 143.453 33.384 141.576 33.384C139.613 33.384 137.853 33.0747 136.296 32.456C134.76 31.816 133.544 30.888 132.648 29.672C131.773 28.4347 131.336 26.9093 131.336 25.096C131.336 23.2827 131.773 21.7573 132.648 20.52C133.544 19.2827 134.76 18.344 136.296 17.704C137.853 17.064 139.613 16.744 141.576 16.744C143.453 16.744 145.064 17.0107 146.408 17.544C147.752 18.056 148.808 18.8027 149.576 19.784C150.365 20.7653 150.824 21.9493 150.952 23.336H147.144C146.781 22.2693 146.109 21.4373 145.128 20.84C144.146 20.2427 142.962 19.944 141.576 19.944C140.466 19.944 139.453 20.136 138.536 20.52C137.64 20.904 136.914 21.48 136.36 22.248C135.826 22.9947 135.56 23.944 135.56 25.096C135.56 26.2267 135.826 27.176 136.36 27.944C136.893 28.6907 137.618 29.256 138.536 29.64C139.453 30.0027 140.466 30.184 141.576 30.184C143.069 30.184 144.285 29.8853 145.224 29.288C146.184 28.6907 146.834 27.8373 147.176 26.728H150.984ZM168.569 33V24.264C168.569 23.3893 168.42 22.664 168.121 22.088C167.822 21.512 167.342 21.0747 166.681 20.776C166.041 20.4773 165.177 20.328 164.089 20.328C163.044 20.328 162.094 20.5307 161.241 20.936C160.388 21.32 159.694 21.832 159.161 22.472C158.628 23.0907 158.329 23.752 158.265 24.456L158.233 22.696C158.34 21.992 158.585 21.288 158.969 20.584C159.353 19.88 159.865 19.24 160.505 18.664C161.145 18.088 161.913 17.6293 162.809 17.288C163.726 16.9253 164.75 16.744 165.881 16.744C166.862 16.744 167.769 16.872 168.601 17.128C169.433 17.3627 170.158 17.736 170.777 18.248C171.396 18.76 171.876 19.4 172.217 20.168C172.558 20.9147 172.729 21.8 172.729 22.824V33H168.569ZM154.329 33V10.696H158.489V33H154.329ZM185.886 33.384C183.881 33.384 182.11 33.064 180.574 32.424C179.059 31.784 177.875 30.856 177.022 29.64C176.169 28.4027 175.742 26.888 175.742 25.096C175.742 23.304 176.169 21.7893 177.022 20.552C177.875 19.2933 179.059 18.344 180.574 17.704C182.11 17.064 183.881 16.744 185.886 16.744C187.891 16.744 189.641 17.064 191.134 17.704C192.649 18.344 193.833 19.2933 194.686 20.552C195.539 21.7893 195.966 23.304 195.966 25.096C195.966 26.888 195.539 28.4027 194.686 29.64C193.833 30.856 192.649 31.784 191.134 32.424C189.641 33.064 187.891 33.384 185.886 33.384ZM185.886 30.184C186.995 30.184 187.987 29.992 188.862 29.608C189.758 29.2027 190.462 28.6267 190.974 27.88C191.486 27.112 191.742 26.184 191.742 25.096C191.742 24.008 191.486 23.08 190.974 22.312C190.462 21.5227 189.769 20.9253 188.894 20.52C188.019 20.1147 187.017 19.912 185.886 19.912C184.777 19.912 183.774 20.1147 182.878 20.52C181.982 20.9253 181.267 21.512 180.734 22.28C180.222 23.048 179.966 23.9867 179.966 25.096C179.966 26.184 180.222 27.112 180.734 27.88C181.246 28.6267 181.95 29.2027 182.846 29.608C183.742 29.992 184.755 30.184 185.886 30.184ZM199.361 10.696H203.521V33H199.361V10.696ZM215.473 33.352C213.894 33.352 212.454 33.0107 211.153 32.328C209.873 31.624 208.849 30.6533 208.081 29.416C207.334 28.1573 206.961 26.7067 206.961 25.064C206.961 23.3787 207.345 21.9173 208.113 20.68C208.881 19.4427 209.915 18.4827 211.217 17.8C212.539 17.096 214.033 16.744 215.697 16.744C217.531 16.744 219.003 17.1173 220.113 17.864C221.243 18.5893 222.065 19.5813 222.577 20.84C223.089 22.0987 223.345 23.5067 223.345 25.064C223.345 26.0027 223.195 26.9627 222.897 27.944C222.598 28.904 222.139 29.8 221.521 30.632C220.902 31.4427 220.091 32.104 219.089 32.616C218.086 33.1067 216.881 33.352 215.473 33.352ZM216.817 30.152C218.075 30.152 219.163 29.9387 220.081 29.512C220.998 29.0853 221.702 28.488 222.193 27.72C222.683 26.952 222.929 26.0667 222.929 25.064C222.929 23.976 222.673 23.0587 222.161 22.312C221.67 21.544 220.966 20.968 220.049 20.584C219.153 20.1787 218.075 19.976 216.817 19.976C215.046 19.976 213.67 20.4453 212.689 21.384C211.707 22.3013 211.217 23.528 211.217 25.064C211.217 26.088 211.451 26.984 211.921 27.752C212.39 28.4987 213.041 29.0853 213.873 29.512C214.726 29.9387 215.707 30.152 216.817 30.152ZM222.929 17.096H227.089V33H223.217C223.217 33 223.185 32.7973 223.121 32.392C223.078 31.9653 223.035 31.432 222.993 30.792C222.95 30.152 222.929 29.5227 222.929 28.904V17.096ZM230.854 17.096H235.014V33H230.854V17.096ZM241.126 20.52C239.931 20.52 238.896 20.7547 238.022 21.224C237.147 21.672 236.443 22.2267 235.91 22.888C235.376 23.5493 235.003 24.1893 234.79 24.808L234.758 23.048C234.779 22.792 234.864 22.4187 235.014 21.928C235.163 21.416 235.387 20.872 235.686 20.296C235.984 19.6987 236.379 19.1333 236.87 18.6C237.36 18.0453 237.958 17.5973 238.662 17.256C239.366 16.9147 240.187 16.744 241.126 16.744V20.52Z" fill="#0CB6F0"/>
<path d="M57.9873 6.108V11.508H48.8433V6.108H57.9873ZM49.0953 15.36H57.7353V33H49.0953V15.36ZM76.1406 30.516C72.7326 30.516 69.9246 30.24 67.7166 29.688C65.5086 29.112 63.8766 28.26 62.8206 27.132C61.7646 25.98 61.2366 24.54 61.2366 22.812C61.2366 21.204 61.7526 19.812 62.7846 18.636C63.8166 17.436 65.4246 16.5 67.6086 15.828C69.8166 15.156 72.6606 14.82 76.1406 14.82C76.8366 14.82 77.5446 14.82 78.2646 14.82C78.9846 14.82 79.6926 14.82 80.3886 14.82H94.1406V19.356C92.5806 19.428 90.9966 19.356 89.3886 19.14C87.8046 18.9 86.3406 18.588 84.9966 18.204L84.6006 17.664C85.6806 18 86.7006 18.432 87.6606 18.96C88.6446 19.488 89.4366 20.124 90.0366 20.868C90.6366 21.612 90.9366 22.5 90.9366 23.532C90.9366 25.02 90.4206 26.292 89.3886 27.348C88.3806 28.38 86.7846 29.172 84.6006 29.724C82.4406 30.252 79.6206 30.516 76.1406 30.516ZM83.8086 40.74V39.768C83.8086 39.048 83.4846 38.616 82.8366 38.472C82.2126 38.352 81.2166 38.292 79.8486 38.292H69.8046C68.1006 38.292 66.7206 38.172 65.6646 37.932C64.6326 37.692 63.8406 37.368 63.2886 36.96C62.7606 36.552 62.4006 36.096 62.2086 35.592C62.0406 35.112 61.9566 34.632 61.9566 34.152C61.9566 33.12 62.3406 32.316 63.1086 31.74C63.8766 31.14 65.0526 30.72 66.6366 30.48C68.2206 30.24 70.2366 30.12 72.6846 30.12L76.1406 30.516C74.1246 30.516 72.7206 30.624 71.9286 30.84C71.1366 31.032 70.7406 31.428 70.7406 32.028C70.7406 32.364 70.8966 32.616 71.2086 32.784C71.5206 32.928 71.9406 33 72.4686 33H83.0886C85.4646 33 87.3366 33.168 88.7046 33.504C90.0726 33.864 91.0326 34.452 91.5846 35.268C92.1606 36.108 92.4486 37.248 92.4486 38.688V40.74H83.8086ZM76.1406 25.8C77.7246 25.8 78.9966 25.68 79.9566 25.44C80.9406 25.176 81.6486 24.828 82.0806 24.396C82.5126 23.964 82.7286 23.484 82.7286 22.956C82.7286 22.356 82.5126 21.84 82.0806 21.408C81.6486 20.976 80.9526 20.64 79.9926 20.4C79.0326 20.16 77.7486 20.04 76.1406 20.04C74.5566 20.04 73.2726 20.16 72.2886 20.4C71.3046 20.64 70.5846 20.976 70.1286 21.408C69.6726 21.84 69.4446 22.356 69.4446 22.956C69.4446 23.484 69.6606 23.964 70.0926 24.396C70.5486 24.828 71.2686 25.176 72.2526 25.44C73.2366 25.68 74.5326 25.8 76.1406 25.8ZM105.976 6.108V11.508H96.8316V6.108H105.976ZM97.0836 15.36H105.724V33H97.0836V15.36Z" fill="#202020"/>
</g>
<defs>
<filter id="filter0_d_651_158" x="2.52002" y="6.10791" width="246.606" height="42.6321" filterUnits="userSpaceOnUse" color-interpolation-filters="sRGB">
<feFlood flood-opacity="0" result="BackgroundImageFix"/>
<feColorMatrix in="SourceAlpha" type="matrix" values="0 0 0 0 0 0 0 0 0 0 0 0 0 0 0 0 0 0 127 0" result="hardAlpha"/>
<feOffset dx="4" dy="4"/>
<feGaussianBlur stdDeviation="2"/>
<feComposite in2="hardAlpha" operator="out"/>
<feColorMatrix type="matrix" values="0 0 0 0 0 0 0 0 0 0 0 0 0 0 0 0 0 0 0.25 0"/>
<feBlend mode="normal" in2="BackgroundImageFix" result="effect1_dropShadow_651_158"/>
<feBlend mode="normal" in="SourceGraphic" in2="effect1_dropShadow_651_158" result="shape"/>
</filter>
</defs>
</svg>
