<svg width="61" height="44" viewBox="0 0 61 44" fill="none" xmlns="http://www.w3.org/2000/svg">
<path fill-rule="evenodd" clip-rule="evenodd" d="M30.4758 0C13.6532 0 0 9.856 0 22C0 22.726 0.0609516 23.43 0.152379 24.134C0.182855 24.398 0.243806 24.64 0.304758 24.904C0.396185 25.344 0.457137 25.784 0.57904 26.202C0.670468 26.51 0.761895 26.818 0.883798 27.126C1.0057 27.478 1.1276 27.83 1.24951 28.182C1.40189 28.534 1.55427 28.864 1.70664 29.194C1.85902 29.48 1.98093 29.788 2.16378 30.074C2.34664 30.426 2.55997 30.778 2.80377 31.13C2.95615 31.372 3.10853 31.614 3.29139 31.856C3.56567 32.23 3.80948 32.604 4.11423 32.956C4.26661 33.154 4.41899 33.33 4.57137 33.506C4.9066 33.902 5.24184 34.276 5.60755 34.65C5.72945 34.782 5.85135 34.892 5.97326 35.024C9.59988 38.588 14.6589 41.316 20.5407 42.79L20.815 42.856C22.2169 43.186 23.6492 43.45 25.1425 43.648C25.3863 43.67 25.6606 43.714 25.9044 43.736C27.3977 43.89 28.9215 44 30.4758 44C32.0301 44 33.5539 43.89 35.0472 43.736C35.291 43.714 35.5653 43.692 35.8091 43.648C37.3024 43.45 38.7347 43.186 40.1366 42.856C40.2281 42.834 40.3195 42.812 40.4109 42.79C46.2927 41.316 51.3517 38.588 54.9784 35.024C55.1003 34.914 55.2222 34.804 55.3441 34.672C55.7098 34.298 56.045 33.902 56.3802 33.506C56.5326 33.33 56.685 33.154 56.8374 32.956C57.1421 32.582 57.4164 32.208 57.6602 31.834C57.8126 31.592 57.965 31.372 58.1174 31.13C58.3307 30.778 58.544 30.426 58.7574 30.052C58.9097 29.766 59.0621 29.48 59.184 29.194C59.3364 28.864 59.5192 28.512 59.6411 28.182C59.7935 27.83 59.885 27.478 60.0069 27.126C60.0983 26.818 60.2202 26.51 60.3116 26.202C60.4335 25.784 60.4945 25.344 60.5859 24.904C60.6468 24.64 60.7078 24.398 60.7383 24.134C60.8907 23.43 60.9516 22.726 60.9516 22C60.9516 9.856 47.2984 0 30.4758 0ZM30.4758 39.6C22.9178 39.6 16.1827 37.136 11.7332 33.242C14.2932 32.274 17.4017 31.438 19.8702 30.624C24.2892 29.194 23.8321 28.314 23.9845 27.126C24.0149 26.972 24.0149 26.818 24.0149 26.664C22.4607 25.674 21.1807 24.288 20.3578 22.704L20.3274 22.682C20.3274 22.66 20.2969 22.638 20.2969 22.616C20.114 22.264 19.9617 21.912 19.8397 21.56C18.834 21.406 18.2245 20.592 17.9807 19.822C17.7369 19.514 17.2798 18.766 17.3712 17.908C17.5236 16.786 18.1636 16.28 18.8645 16.082C18.8645 16.016 18.8645 15.972 18.8645 15.906C18.8645 14.52 19.0474 12.496 19.3826 11.176C19.4436 10.802 19.5655 10.45 19.7178 10.076C20.3578 8.47 21.7292 6.996 23.5578 5.984C25.4473 4.95 28.1292 4.4 30.5063 4.4C32.8834 4.4 35.5348 4.95 37.4243 6.006C39.2528 7.018 40.6242 8.47 41.2642 10.098C41.4166 10.45 41.508 10.824 41.5995 11.198C41.9347 12.518 42.1176 14.52 42.1176 15.928V16.126C42.788 16.346 43.3975 16.852 43.5194 17.93C43.6413 18.788 43.1537 19.536 42.9099 19.844C42.6966 20.592 42.0871 21.406 41.0814 21.56C40.9595 21.912 40.8071 22.286 40.6242 22.616C40.6242 22.638 40.5633 22.726 40.5633 22.726C39.7709 24.288 38.5214 25.652 36.9976 26.642C36.9976 26.818 37.0281 26.994 37.0281 27.148C37.1805 28.336 36.571 29.216 41.0204 30.646C43.489 31.438 46.628 32.274 49.1879 33.264C44.7385 37.136 38.0033 39.6 30.4758 39.6Z" fill="#0CB6F0"/>
</svg>
